<svg id="图层_1" data-name="图层 1" xmlns="http://www.w3.org/2000/svg" xmlns:xlink="http://www.w3.org/1999/xlink" viewBox="0 0 128.99 97.74"><defs><style>.cls-1{fill:none;stroke:#fff;stroke-miterlimit:10;stroke-width:4px;}.cls-2{fill:url(#未命名的渐变_7);}.cls-3{fill:url(#未命名的渐变_7-2);}.cls-4{fill:url(#未命名的渐变_7-3);}.cls-5{fill:url(#未命名的渐变_7-4);}.cls-6{fill:url(#未命名的渐变_7-5);}.cls-7{fill:url(#未命名的渐变_7-6);}</style><linearGradient id="未命名的渐变_7" x1="33.54" y1="59.54" x2="40.04" y2="59.54" gradientUnits="userSpaceOnUse"><stop offset="0" stop-color="#e83a37"/><stop offset="0.16" stop-color="#e93e37"/><stop offset="0.33" stop-color="#ea4b36"/><stop offset="0.51" stop-color="#ed6134"/><stop offset="0.69" stop-color="#f17f32"/><stop offset="0.87" stop-color="#f7a52e"/><stop offset="1" stop-color="#fbc42c"/></linearGradient><linearGradient id="未命名的渐变_7-2" x1="65.47" y1="44.05" x2="117.35" y2="27.57" xlink:href="#未命名的渐变_7"/><linearGradient id="未命名的渐变_7-3" x1="53.84" y1="53.76" x2="100.15" y2="53.76" xlink:href="#未命名的渐变_7"/><linearGradient id="未命名的渐变_7-4" x1="91.56" y1="51.7" x2="95.77" y2="65.04" xlink:href="#未命名的渐变_7"/><linearGradient id="未命名的渐变_7-5" x1="90.48" y1="29.63" x2="128.99" y2="29.63" xlink:href="#未命名的渐变_7"/><linearGradient id="未命名的渐变_7-6" x1="103.34" y1="44.92" x2="117.46" y2="53.95" xlink:href="#未命名的渐变_7"/></defs><title>logo</title><path class="cls-1" d="M74.11,89.34a14.51,14.51,0,1,1,0-16.23"/><line class="cls-1" x1="36.79" y1="96.72" x2="36.79" y2="67.17"/><circle class="cls-2" cx="36.79" cy="59.54" r="3.25"/><path class="cls-3" d="M82.06,49a41.36,41.36,0,0,1-13.43-2.51,1,1,0,0,1,.65-1.89c10.1,3.48,18.35,3.16,25.23-1,8-4.81,13.23-13.7,14.29-24.4a1,1,0,1,1,2,.2c-1.12,11.33-6.67,20.78-15.25,25.92A25.66,25.66,0,0,1,82.06,49Z"/><path class="cls-4" d="M94.33,73.08a1,1,0,0,1-.7-.29c-7-6.93-5-14.64-3.16-18.67C69,63,54.21,44.61,54.05,44.41a1,1,0,0,1,.2-1.43c.61-.43,15-10.59,28.2-8.16A20.1,20.1,0,0,1,95.87,44c10,15-.65,28.58-.75,28.71a1,1,0,0,1-.72.37ZM92.86,50.9a1,1,0,0,1,.8,1.6c-.29.4-6.92,9.58.57,18a22.4,22.4,0,0,0,0-25.42,18.17,18.17,0,0,0-12.09-8.31c-10.59-2-22.46,5.06-25.78,7.21,3.22,3.6,16.94,16.9,36.07,7A1,1,0,0,1,92.86,50.9Z"/><path class="cls-5" d="M93.68,64.1A1,1,0,0,1,93.3,64a1,1,0,0,1-.54-1.31A13.14,13.14,0,0,0,92,52.37a1,1,0,0,1,1.77-.93,14.93,14.93,0,0,1,.86,12.06A1,1,0,0,1,93.68,64.1Z"/><path class="cls-6" d="M116.47,59.26c-7,0-15.81-2.8-22.31-14.22-3.67-6.46-4.61-13.09-2.78-19.69C95.57,10.25,112.55.54,113.27.13a1,1,0,0,1,1.36.38c.14.25,13.13,23.81-6.73,42.89,5.57-1,15.13-.44,21,11.93a1,1,0,0,1-.45,1.32A29.35,29.35,0,0,1,116.47,59.26Zm-3.1-56.85C109.83,4.62,96.74,13.5,93.31,25.89,91.63,32,92.5,38.07,95.9,44c10.46,18.39,26.71,13,30.74,11.24-7.88-15.29-21.73-9.09-22.33-8.81a1,1,0,0,1-1-1.69C124.29,28.14,115.66,7.08,113.37,2.41Z"/><path class="cls-7" d="M118.5,54h0c-.42,0-10.4-.51-15.39-7.82A1,1,0,0,1,104.72,45c4.43,6.49,13.73,6.95,13.82,7a1,1,0,0,1,0,2Z"/><line class="cls-1" x1="2" y1="96.72" x2="2" y2="65.39"/><path class="cls-1" d="M25.81,96.72V78.26c0-6.94-5.66-11.31-11.91-11.31S2,71.06,2,78.26V96.72"/></svg>