<svg id="图层_1" data-name="图层 1" xmlns="http://www.w3.org/2000/svg" xmlns:xlink="http://www.w3.org/1999/xlink" viewBox="0 0 76.67 76.67"><defs><style>.cls-1{fill:none;}.cls-1,.cls-2,.cls-3,.cls-4,.cls-5,.cls-6{stroke:#fff;stroke-miterlimit:10;stroke-width:1.08px;}.cls-2{fill:url(#未命名的渐变_9);}.cls-3{fill:url(#未命名的渐变_9-2);}.cls-4{fill:url(#未命名的渐变_9-3);}.cls-5{fill:url(#未命名的渐变_9-4);}.cls-6{fill:url(#未命名的渐变_9-5);}</style><linearGradient id="未命名的渐变_9" x1="34.49" y1="4.39" x2="42.18" y2="4.39" gradientUnits="userSpaceOnUse"><stop offset="0" stop-color="#ff3b44"/><stop offset="1" stop-color="#ffbf41"/></linearGradient><linearGradient id="未命名的渐变_9-2" x1="34.49" y1="72.29" x2="42.18" y2="72.29" xlink:href="#未命名的渐变_9"/><linearGradient id="未命名的渐变_9-3" x1="68.44" y1="38.34" x2="76.13" y2="38.34" xlink:href="#未命名的渐变_9"/><linearGradient id="未命名的渐变_9-4" x1="0.54" y1="38.34" x2="8.23" y2="38.34" xlink:href="#未命名的渐变_9"/><linearGradient id="未命名的渐变_9-5" x1="34.49" y1="38.34" x2="42.18" y2="38.34" xlink:href="#未命名的渐变_9"/></defs><title>proj-icon1-h</title><rect class="cls-1" x="14.08" y="14.43" width="48.51" height="48.51"/><polyline class="cls-1" points="62.59 28.64 72.64 38.69 62.58 48.75"/><polyline class="cls-1" points="14.07 48.75 4.02 38.7 14.08 28.64"/><polyline class="cls-1" points="48.38 62.95 38.34 73 28.27 62.94"/><polyline class="cls-1" points="28.27 14.43 38.32 4.38 48.38 14.45"/><rect class="cls-1" x="21.84" y="22.19" width="32.99" height="32.99" transform="translate(38.58 -15.78) rotate(45)"/><rect class="cls-1" x="21.84" y="22.19" width="32.99" height="32.99" transform="translate(38.58 -15.78) rotate(45)"/><circle class="cls-2" cx="38.34" cy="4.39" r="3.84"/><circle class="cls-3" cx="38.34" cy="72.29" r="3.84"/><circle class="cls-4" cx="72.29" cy="38.34" r="3.84"/><circle class="cls-5" cx="4.39" cy="38.34" r="3.84"/><line class="cls-1" x1="38.33" y1="14.43" x2="38.33" y2="62.01"/><circle class="cls-6" cx="38.34" cy="38.34" r="3.84"/></svg>