<svg id="图层_1" data-name="图层 1" xmlns="http://www.w3.org/2000/svg" xmlns:xlink="http://www.w3.org/1999/xlink" viewBox="0 0 69.4 69.4"><defs><style>.cls-1{fill:none;}.cls-1,.cls-10,.cls-2,.cls-3,.cls-4,.cls-5,.cls-6,.cls-7,.cls-8,.cls-9{stroke:#fff;stroke-miterlimit:10;stroke-width:1.08px;}.cls-2{fill:url(#未命名的渐变_9);}.cls-3{fill:url(#未命名的渐变_9-2);}.cls-4{fill:url(#未命名的渐变_9-3);}.cls-5{fill:url(#未命名的渐变_9-4);}.cls-6{fill:url(#未命名的渐变_9-5);}.cls-7{fill:url(#未命名的渐变_9-6);}.cls-8{fill:url(#未命名的渐变_9-7);}.cls-9{fill:url(#未命名的渐变_9-8);}.cls-10{fill:url(#未命名的渐变_9-9);}</style><linearGradient id="未命名的渐变_9" x1="60.87" y1="50.99" x2="68.86" y2="50.99" gradientUnits="userSpaceOnUse"><stop offset="0" stop-color="#ff3b44"/><stop offset="1" stop-color="#ffbf41"/></linearGradient><linearGradient id="未命名的渐变_9-2" x1="60.87" y1="18.41" x2="68.86" y2="18.41" xlink:href="#未命名的渐变_9"/><linearGradient id="未命名的渐变_9-3" x1="0.54" y1="50.99" x2="8.52" y2="50.99" xlink:href="#未命名的渐变_9"/><linearGradient id="未命名的渐变_9-4" x1="0.54" y1="18.41" x2="8.52" y2="18.41" xlink:href="#未命名的渐变_9"/><linearGradient id="未命名的渐变_9-5" x1="30.71" y1="34.87" x2="38.69" y2="34.87" xlink:href="#未命名的渐变_9"/><linearGradient id="未命名的渐变_9-6" x1="47" y1="4.53" x2="54.98" y2="4.53" xlink:href="#未命名的渐变_9"/><linearGradient id="未命名的渐变_9-7" x1="14.42" y1="4.53" x2="22.4" y2="4.53" xlink:href="#未命名的渐变_9"/><linearGradient id="未命名的渐变_9-8" x1="47" y1="64.87" x2="54.98" y2="64.87" xlink:href="#未命名的渐变_9"/><linearGradient id="未命名的渐变_9-9" x1="14.42" y1="64.87" x2="22.4" y2="64.87" xlink:href="#未命名的渐变_9"/></defs><title>proj-icon2-h</title><polygon class="cls-1" points="64.86 18.41 64.86 50.99 4.53 18.41 4.53 50.99 64.86 18.41"/><circle class="cls-2" cx="64.87" cy="50.99" r="3.99"/><circle class="cls-3" cx="64.87" cy="18.41" r="3.99"/><circle class="cls-4" cx="4.53" cy="50.99" r="3.99"/><circle class="cls-5" cx="4.53" cy="18.41" r="3.99"/><polygon class="cls-1" points="18.41 4.53 50.99 4.53 18.41 64.86 50.99 64.86 18.41 4.53"/><polygon class="cls-1" points="18.41 4.53 50.99 4.53 18.41 64.86 50.99 64.86 18.41 4.53"/><circle class="cls-6" cx="34.7" cy="34.87" r="3.99"/><circle class="cls-7" cx="50.99" cy="4.53" r="3.99"/><circle class="cls-8" cx="18.41" cy="4.53" r="3.99"/><circle class="cls-9" cx="50.99" cy="64.87" r="3.99"/><circle class="cls-10" cx="18.41" cy="64.87" r="3.99"/></svg>