<svg id="图层_1" data-name="图层 1" xmlns="http://www.w3.org/2000/svg" xmlns:xlink="http://www.w3.org/1999/xlink" viewBox="0 0 56 58.51"><defs><style>.cls-1{fill:url(#未命名的渐变_9);}</style><linearGradient id="未命名的渐变_9" y1="29.25" x2="56" y2="29.25" gradientUnits="userSpaceOnUse"><stop offset="0" stop-color="#ff3b44"/><stop offset="1" stop-color="#ffbf41"/></linearGradient></defs><title>画板 3</title><path class="cls-1" d="M55.67,39.7l-.51-.63L55,39,47.67,31.6a1.51,1.51,0,0,0-2.13,2.14l7.18,7.15A26.2,26.2,0,0,1,9.29,46.3,26.2,26.2,0,0,1,12.21,9.36a26.83,26.83,0,0,1,20-6.21A24.21,24.21,0,0,1,49.1,12.24a21.3,21.3,0,0,1,3.17,5.91l-9,9L34.5,18.41a1.37,1.37,0,0,0-.33-.25,15.21,15.21,0,1,0-.31,22.55l.51-.41.13-.12L55.05,19.63a1.51,1.51,0,0,0,.39-1.45,24,24,0,0,0-4-7.8A27.2,27.2,0,0,0,32.53.15,29.85,29.85,0,0,0,10.25,7.07,29.21,29.21,0,0,0,26.91,58.41q1.18.09,2.35.09A29.25,29.25,0,0,0,55.87,41.27,1.51,1.51,0,0,0,55.67,39.7ZM11.6,29.29a12.22,12.22,0,0,1,8.46-11.61A6.87,6.87,0,0,0,19.15,24a10.07,10.07,0,0,0,1.72,2.88c.67.85,1,1.2.86,2.2,0,.49-.22.67-1,1.26a6.21,6.21,0,0,0-2.66,4.44c-.29,2.2.82,4.46,2,6.14A12.22,12.22,0,0,1,11.6,29.29ZM32.43,38l-.51.41a12.16,12.16,0,0,1-7.54,3.07,1.43,1.43,0,0,0-.09-.14c-.92-.92-3.47-4-3.19-6.17a3.24,3.24,0,0,1,1.55-2.47,4.61,4.61,0,0,0,2.08-3.33A5.44,5.44,0,0,0,23.24,25,7.19,7.19,0,0,1,22,22.92c-1-2.73,2.13-5.33,2.19-5.39a1.48,1.48,0,0,0,.34-.4,12.1,12.1,0,0,1,7.92,3.54,1.37,1.37,0,0,0,.3.23l8.39,8.39Z"/></svg>