<svg id="图层_1" data-name="图层 1" xmlns="http://www.w3.org/2000/svg" xmlns:xlink="http://www.w3.org/1999/xlink" viewBox="0 0 62 55.07"><defs><style>.cls-1{fill:url(#未命名的渐变_9);}.cls-2{fill:url(#未命名的渐变_9-2);}.cls-3{fill:url(#未命名的渐变_9-3);}.cls-4{fill:url(#未命名的渐变_9-4);}.cls-5{fill:url(#未命名的渐变_9-5);}.cls-6{fill:url(#未命名的渐变_9-6);}.cls-7{fill:url(#未命名的渐变_9-7);}.cls-8{fill:url(#未命名的渐变_9-8);}.cls-9{fill:url(#未命名的渐变_9-9);}.cls-10{fill:url(#未命名的渐变_9-10);}.cls-11{fill:url(#未命名的渐变_9-11);}.cls-12{fill:url(#未命名的渐变_9-12);}.cls-13{fill:url(#未命名的渐变_9-13);}.cls-14{fill:url(#未命名的渐变_9-14);}.cls-15{fill:url(#未命名的渐变_9-15);}.cls-16{fill:url(#未命名的渐变_9-16);}.cls-17{fill:url(#未命名的渐变_9-17);}</style><linearGradient id="未命名的渐变_9" x1="-6.92" y1="18.1" x2="34.55" y2="69.72" gradientUnits="userSpaceOnUse"><stop offset="0" stop-color="#ff3b44"/><stop offset="1" stop-color="#ffbf41"/></linearGradient><linearGradient id="未命名的渐变_9-2" x1="-5.83" y1="17.22" x2="35.64" y2="68.84" xlink:href="#未命名的渐变_9"/><linearGradient id="未命名的渐变_9-3" x1="-3.98" y1="15.73" x2="37.49" y2="67.36" xlink:href="#未命名的渐变_9"/><linearGradient id="未命名的渐变_9-4" x1="3.87" y1="9.43" x2="45.33" y2="61.05" xlink:href="#未命名的渐变_9"/><linearGradient id="未命名的渐变_9-5" x1="27.15" y1="-9.27" x2="68.61" y2="42.35" xlink:href="#未命名的渐变_9"/><linearGradient id="未命名的渐变_9-6" x1="19.31" y1="-2.97" x2="60.78" y2="48.65" xlink:href="#未命名的渐变_9"/><linearGradient id="未命名的渐变_9-7" x1="14.54" y1="0.86" x2="56" y2="52.48" xlink:href="#未命名的渐变_9"/><linearGradient id="未命名的渐变_9-8" x1="21.06" y1="-4.37" x2="62.52" y2="47.25" xlink:href="#未命名的渐变_9"/><linearGradient id="未命名的渐变_9-9" x1="8.45" y1="5.75" x2="49.91" y2="57.38" xlink:href="#未命名的渐变_9"/><linearGradient id="未命名的渐变_9-10" x1="2.03" y1="10.91" x2="43.5" y2="62.53" xlink:href="#未命名的渐变_9"/><linearGradient id="未命名的渐变_9-11" x1="30.02" y1="-11.57" x2="71.49" y2="40.05" xlink:href="#未命名的渐变_9"/><linearGradient id="未命名的渐变_9-12" x1="29.08" y1="-10.82" x2="70.55" y2="40.8" xlink:href="#未命名的渐变_9"/><linearGradient id="未命名的渐变_9-13" x1="11.54" y1="3.27" x2="53.01" y2="54.89" xlink:href="#未命名的渐变_9"/><linearGradient id="未命名的渐变_9-14" x1="10.74" y1="3.91" x2="52.21" y2="55.53" xlink:href="#未命名的渐变_9"/><linearGradient id="未命名的渐变_9-15" x1="12.34" y1="2.63" x2="53.81" y2="54.25" xlink:href="#未命名的渐变_9"/><linearGradient id="未命名的渐变_9-16" x1="11.04" y1="3.67" x2="52.5" y2="55.29" xlink:href="#未命名的渐变_9"/><linearGradient id="未命名的渐变_9-17" x1="12.04" y1="2.87" x2="53.51" y2="54.49" xlink:href="#未命名的渐变_9"/></defs><title>画板 5</title><path class="cls-1" d="M18.5,55.07a5.34,5.34,0,1,1,5.34-5.34A5.34,5.34,0,0,1,18.5,55.07Zm0-7.55a2.22,2.22,0,1,0,2.21,2.22A2.22,2.22,0,0,0,18.5,47.52Z"/><path class="cls-2" d="M16.47,48.1a1.56,1.56,0,0,1-1.35-.77l-7-11.81a1.56,1.56,0,1,1,2.69-1.59l7,11.81a1.56,1.56,0,0,1-1.34,2.35Z"/><path class="cls-3" d="M5.34,32.66a5.34,5.34,0,0,1-2.4-10.11,5.45,5.45,0,0,1,7.17,2.37,5.34,5.34,0,0,1-4.76,7.73Zm0-7.55a2.19,2.19,0,0,0-1,.24,2.22,2.22,0,0,0-1,3,2.25,2.25,0,0,0,3,1,2.22,2.22,0,0,0-1-4.2Z"/><path class="cls-4" d="M7.28,25.63A1.56,1.56,0,0,1,6,23.22L13.39,11.7A1.56,1.56,0,1,1,16,13.39L8.59,24.91A1.56,1.56,0,0,1,7.28,25.63Z"/><path class="cls-5" d="M56.66,32.8a5.34,5.34,0,0,1-2.4-10.11,5.45,5.45,0,0,1,7.17,2.37,5.34,5.34,0,0,1-4.77,7.73Zm0-7.55a2.19,2.19,0,0,0-1,.24,2.22,2.22,0,0,0-1,3,2.25,2.25,0,0,0,3,1,2.22,2.22,0,0,0-1-4.2Z"/><path class="cls-6" d="M47.29,43.81A1.56,1.56,0,0,1,46,41.4l7.43-11.53A1.56,1.56,0,0,1,56,31.56L48.6,43.09A1.56,1.56,0,0,1,47.29,43.81Z"/><path class="cls-7" d="M18.09,10.63A5.34,5.34,0,0,1,13.5,2.57,5.49,5.49,0,0,1,20.81.7,5.34,5.34,0,0,1,22.69,8,5.36,5.36,0,0,1,18.09,10.63Zm0-7.55A2.22,2.22,0,0,0,17,7.2a2.26,2.26,0,0,0,3-.78,2.22,2.22,0,0,0-1.9-3.34Z"/><path class="cls-8" d="M35.59,6.74H21.88a1.56,1.56,0,1,1,0-3.12H35.59a1.56,1.56,0,1,1,0,3.12Z"/><path class="cls-9" d="M43.78,55.07h0a5.34,5.34,0,0,1-2.72-9.93A5.48,5.48,0,0,1,48.37,47a5.34,5.34,0,0,1-4.59,8.06Zm0-7.55a2.22,2.22,0,0,0,0,4.43h0a2.22,2.22,0,0,0,0-4.43Z"/><path class="cls-10" d="M40,51.19H26.28a1.56,1.56,0,1,1,0-3.12H40a1.56,1.56,0,1,1,0,3.12Z"/><path class="cls-11" d="M43.61,10.67a5.36,5.36,0,0,1-5.34-5.24A5.34,5.34,0,0,1,43.51,0h0a5.38,5.38,0,0,1,5.43,5.24,5.34,5.34,0,0,1-5.24,5.43Zm0-7.55A2.22,2.22,0,0,0,42,3.8a2.2,2.2,0,0,0-.62,1.58,2.23,2.23,0,0,0,2.21,2.17V9.11l0-1.56A2.21,2.21,0,0,0,45.82,5.3,2.23,2.23,0,0,0,43.61,3.12Z"/><path class="cls-12" d="M52.89,21.73A1.56,1.56,0,0,1,51.56,21L44.36,9.32A1.56,1.56,0,1,1,47,7.68l7.2,11.67a1.56,1.56,0,0,1-1.33,2.38Z"/><path class="cls-13" d="M30.92,32.12A4.73,4.73,0,0,1,27.57,24a4.84,4.84,0,0,1,6.69,0,4.73,4.73,0,0,1-3.35,8.08Zm0-6.34a1.61,1.61,0,0,0-1.14,2.75,1.65,1.65,0,0,0,2.28,0,1.61,1.61,0,0,0-1.14-2.75Z"/><path class="cls-14" d="M17.54,28.95A1.56,1.56,0,0,1,16,27.39,14.93,14.93,0,0,1,30.92,12.46a1.56,1.56,0,0,1,0,3.12A11.81,11.81,0,0,0,19.11,27.39,1.56,1.56,0,0,1,17.54,28.95Z"/><path class="cls-15" d="M30.92,42.32a1.56,1.56,0,1,1,0-3.12A11.81,11.81,0,0,0,42.73,27.39a1.56,1.56,0,1,1,3.12,0A14.93,14.93,0,0,1,30.92,42.32Z"/><path class="cls-16" d="M22.51,28.95a1.56,1.56,0,0,1-1.56-1.56,10,10,0,0,1,10-10,1.56,1.56,0,0,1,0,3.12,6.85,6.85,0,0,0-6.85,6.85A1.56,1.56,0,0,1,22.51,28.95Z"/><path class="cls-17" d="M30.92,37.36a1.56,1.56,0,1,1,0-3.12,6.85,6.85,0,0,0,6.85-6.85,1.56,1.56,0,1,1,3.12,0,10,10,0,0,1-10,10Z"/></svg>