<svg id="图层_1" data-name="图层 1" xmlns="http://www.w3.org/2000/svg" xmlns:xlink="http://www.w3.org/1999/xlink" viewBox="0 0 56 49.5"><defs><style>.cls-1{fill:url(#未命名的渐变_9);}.cls-2{fill:url(#未命名的渐变_9-2);}</style><linearGradient id="未命名的渐变_9" x1="11.35" y1="3.14" x2="45.02" y2="48.97" gradientUnits="userSpaceOnUse"><stop offset="0" stop-color="#ff3b44"/><stop offset="1" stop-color="#ffbf41"/></linearGradient><linearGradient id="未命名的渐变_9-2" x1="11.01" y1="3.39" x2="44.68" y2="49.22" xlink:href="#未命名的渐变_9"/></defs><title>画板 14</title><circle class="cls-1" cx="27.04" cy="24.49" r="2.9"/><path class="cls-2" d="M56,23.7a2.86,2.86,0,0,0-2.48-2.81c-1.45-2.48-4.17-4.66-7.77-6.36C46.42,8.37,45,3.44,41.35,1.26A8.2,8.2,0,0,0,37.09.15C33.9.15,30.3,1.68,26.73,4.37,23.25,2.07,19.8.76,16.78.76c-.26,0-.5,0-.75,0a2.87,2.87,0,0,0-4.87,2c-2.66,2.4-3.61,6.59-3,11.66C3.19,17,.06,20.43,0,24.34-.07,28.6,3.39,32.4,9,35c-.5,4.5.14,8.33,1.95,10.92a2.77,2.77,0,0,0-.13.64,2.9,2.9,0,0,0,2.9,2.9A2.81,2.81,0,0,0,15.16,49a8.68,8.68,0,0,0,2.47.37c3.19,0,6.79-1.54,10.36-4.22,3.48,2.3,6.93,3.6,9.95,3.6a8.38,8.38,0,0,0,4.81-1.39c3.19-2.17,4.51-6.54,3.75-12.33,4.65-2.28,7.64-5.42,8.13-9A2.85,2.85,0,0,0,56,23.7ZM37.09,2.63a5.75,5.75,0,0,1,3,.77C42.69,5,43.73,8.72,43.32,13.49a42.68,42.68,0,0,0-8.7-2.18,44.1,44.1,0,0,0-5.77-5.42C31.75,3.82,34.62,2.63,37.09,2.63ZM37.3,30.7A50.91,50.91,0,0,1,33.65,36a50.71,50.71,0,0,1-5.62.32h-.85a50.25,50.25,0,0,1-5.83-.44,50.32,50.32,0,0,1-3.55-4.62,50,50,0,0,1-3.55-6.11,50,50,0,0,1,3.17-6.31,50.83,50.83,0,0,1,3.66-5.34,50.51,50.51,0,0,1,5.62-.32h.85a50.21,50.21,0,0,1,5.84.44,50.28,50.28,0,0,1,3.55,4.62,50.86,50.86,0,0,1,3.55,6.09A50,50,0,0,1,37.3,30.7Zm4.55-3.26a35.12,35.12,0,0,1,1.88,6.2,36.17,36.17,0,0,1-6.6,1.88c.8-1.13,1.57-2.32,2.31-3.55C40.34,30.46,41.14,28.94,41.85,27.44ZM31.38,38.73a38.28,38.28,0,0,1-3.48,3.36A39.07,39.07,0,0,1,24,38.69c1,.08,2.1.13,3.19.15H28C29.17,38.85,30.28,38.8,31.38,38.73ZM17.62,35.27a38,38,0,0,1-5.88-1.77,37.44,37.44,0,0,1,1.34-5.17c.8,1.45,1.68,2.9,2.66,4.35C16.34,33.58,17,34.43,17.62,35.27ZM12.88,22.1A35.94,35.94,0,0,1,11,15.92,36.16,36.16,0,0,1,17.59,14c-.8,1.13-1.57,2.32-2.31,3.55C14.39,19.1,13.6,20.6,12.88,22.1ZM23.34,10.83a38.38,38.38,0,0,1,3.48-3.36,39.09,39.09,0,0,1,3.95,3.41c-1-.08-2.1-.13-3.19-.15H26.7C25.56,10.72,24.44,10.77,23.34,10.83Zm15.64,6c-.61-.89-1.24-1.75-1.88-2.59A38,38,0,0,1,43,16.06a37.39,37.39,0,0,1-1.33,5.16C40.85,19.76,40,18.31,39,16.88ZM12.34,5.17A2.83,2.83,0,0,0,14,5.79a2.86,2.86,0,0,0,2.82-2.54A15.82,15.82,0,0,1,24.69,6a43.53,43.53,0,0,0-4.93,5.17,40.71,40.71,0,0,0-9.14,2.26C10.26,9.91,10.8,7,12.34,5.17ZM2.49,24.38C2.54,21.55,4.87,19,8.65,17a40.14,40.14,0,0,0,2.85,8.27,41.45,41.45,0,0,0-2.13,7.18C5.1,30.28,2.44,27.43,2.49,24.38ZM17.63,46.93a6.38,6.38,0,0,1-1.08-.13c0-.07,0-.12,0-.19a2.89,2.89,0,0,0-4-2.67,14,14,0,0,1-1.19-7.86,42.66,42.66,0,0,0,8.7,2.18,44.22,44.22,0,0,0,5.78,5.42C23,45.74,20.11,46.93,17.63,46.93Zm23.71-1.57a5.94,5.94,0,0,1-3.41,1A15.71,15.71,0,0,1,30,43.55,43.47,43.47,0,0,0,35,38.38a40.71,40.71,0,0,0,9.14-2.26C44.54,40.5,43.56,43.85,41.34,45.35Zm4.72-12.78a40.52,40.52,0,0,0-2.86-8.25,41.48,41.48,0,0,0,2.14-7.2,15.1,15.1,0,0,1,5.71,4.53,2.88,2.88,0,0,0,1,4.74C51.48,28.75,49.3,30.88,46.06,32.57Z"/></svg>