<svg id="图层_1" data-name="图层 1" xmlns="http://www.w3.org/2000/svg" xmlns:xlink="http://www.w3.org/1999/xlink" viewBox="0 0 56 45.59"><defs><style>.cls-1{fill:url(#未命名的渐变_9);}</style><linearGradient id="未命名的渐变_9" y1="22.79" x2="56" y2="22.79" gradientUnits="userSpaceOnUse"><stop offset="0" stop-color="#ff3b44"/><stop offset="1" stop-color="#ffbf41"/></linearGradient></defs><title>画板 9</title><path class="cls-1" d="M52,3.58a12.86,12.86,0,0,0-17.85,0L26.92,10.8a1.38,1.38,0,0,0-.41,1v8.71H18.36a1.38,1.38,0,0,0,0,2.76h8.15v7.7a1.38,1.38,0,1,0,2.76,0v-7.7h8.15a1.38,1.38,0,0,0,0-2.76H29.26V12.36l6.86-6.77a10.35,10.35,0,0,1,14,0,10.12,10.12,0,0,1,.66,13.91L27.89,42.26,4.86,19a10,10,0,0,1-2.1-6.17A10.11,10.11,0,0,1,19.82,5.52l3.43,3.6a1.38,1.38,0,1,0,2-1.9L21.77,3.58a12.86,12.86,0,0,0-19,17.26L26.9,45.18a1.38,1.38,0,0,0,1,.41h0a1.38,1.38,0,0,0,1-.4L52.79,21.36A12.87,12.87,0,0,0,52,3.58Z"/></svg>