<svg id="图层_1" data-name="图层 1" xmlns="http://www.w3.org/2000/svg" xmlns:xlink="http://www.w3.org/1999/xlink" viewBox="0 0 56 56"><defs><style>.cls-1{fill:url(#未命名的渐变_9);}.cls-2{fill:url(#未命名的渐变_9-2);}</style><linearGradient id="未命名的渐变_9" x1="6.68" y1="5.42" x2="51.42" y2="52.19" gradientUnits="userSpaceOnUse"><stop offset="0" stop-color="#ff3b44"/><stop offset="1" stop-color="#ffbf41"/></linearGradient><linearGradient id="未命名的渐变_9-2" x1="6.68" y1="5.42" x2="51.42" y2="52.19" xlink:href="#未命名的渐变_9"/></defs><title>画板 11</title><path class="cls-1" d="M16.82,17.86v19.7a1.33,1.33,0,0,0,1.33,1.33h19.7a1.33,1.33,0,0,0,1.33-1.33V17.86a1.33,1.33,0,0,0-1.33-1.33H18.15A1.33,1.33,0,0,0,16.82,17.86Zm2.67,1.33h17v17h-17Z"/><path class="cls-2" d="M54.67,29.22a1.33,1.33,0,0,0,0-2.67h-6.6V19.63h6.6a1.33,1.33,0,0,0,0-2.67h-6.6V9a1.33,1.33,0,0,0-1.33-1.33H38.82V1.33a1.33,1.33,0,1,0-2.67,0V7.66H29.44V1.33a1.33,1.33,0,1,0-2.67,0V7.66H19.85V1.33a1.33,1.33,0,1,0-2.67,0V7.66H9.28A1.33,1.33,0,0,0,8,9v8H1.33a1.33,1.33,0,0,0,0,2.67H8v6.93H1.33a1.33,1.33,0,0,0,0,2.67H8v6.71H1.33a1.33,1.33,0,0,0,0,2.67H8v7.84a1.33,1.33,0,0,0,1.33,1.33h7.9v6.89a1.33,1.33,0,1,0,2.67,0V47.77h6.93v6.89a1.33,1.33,0,1,0,2.67,0V47.77h6.71v6.89a1.33,1.33,0,1,0,2.67,0V47.77h7.91a1.33,1.33,0,0,0,1.33-1.33V38.6h6.6a1.33,1.33,0,0,0,0-2.67h-6.6V29.22ZM45.4,45.11H10.62V10.33H45.4Z"/></svg>