<svg id="图层_1" data-name="图层 1" xmlns="http://www.w3.org/2000/svg" xmlns:xlink="http://www.w3.org/1999/xlink" viewBox="0 0 58.99 59"><defs><style>.cls-1{fill:url(#未命名的渐变_9);}.cls-2{fill:url(#未命名的渐变_9-2);}.cls-3{fill:url(#未命名的渐变_9-3);}.cls-4{fill:url(#未命名的渐变_9-4);}</style><linearGradient id="未命名的渐变_9" x1="8.28" y1="3.58" x2="59.28" y2="37.08" gradientUnits="userSpaceOnUse"><stop offset="0" stop-color="#ff3b44"/><stop offset="1" stop-color="#ffbf41"/></linearGradient><linearGradient id="未命名的渐变_9-2" x1="-2.72" y1="20.32" x2="48.28" y2="53.82" xlink:href="#未命名的渐变_9"/><linearGradient id="未命名的渐变_9-3" x1="-5.59" y1="24.69" x2="45.41" y2="58.19" xlink:href="#未命名的渐变_9"/><linearGradient id="未命名的渐变_9-4" x1="11.15" y1="-0.8" x2="62.15" y2="32.7" xlink:href="#未命名的渐变_9"/></defs><title>画板 7</title><path class="cls-1" d="M47.74,40.76a11.22,11.22,0,0,1-10.47-7.14,1.5,1.5,0,0,1,.48-1.73,20.53,20.53,0,0,1,4.8-2.78A20.54,20.54,0,0,1,38,26.55a1.5,1.5,0,0,1-.46-1.84A11.23,11.23,0,0,1,55.7,21.54h0a11.26,11.26,0,0,1-8,19.22Zm-7.19-7.2a8.14,8.14,0,0,0,1.35,1.78A8.26,8.26,0,0,0,53.58,23.66h0a8.26,8.26,0,0,0-11.69,0,7.49,7.49,0,0,0-1,1.23,17.21,17.21,0,0,0,9.31,2.72,1.5,1.5,0,0,1,0,3A17.19,17.19,0,0,0,40.54,33.56Z"/><path class="cls-2" d="M11.26,40.76a11.26,11.26,0,1,1,8-19.23,11.06,11.06,0,0,1,2.19,3.17A1.5,1.5,0,0,1,21,26.55a20.54,20.54,0,0,1-4.5,2.55,20.53,20.53,0,0,1,4.8,2.78,1.5,1.5,0,0,1,.48,1.73,11.23,11.23,0,0,1-10.47,7.14Zm0-19.53a8.27,8.27,0,1,0,7.19,12.32,17.18,17.18,0,0,0-9.67-3,1.5,1.5,0,0,1,0-3,17.2,17.2,0,0,0,9.31-2.72,7.48,7.48,0,0,0-1-1.23A8.21,8.21,0,0,0,11.26,21.24Z"/><path class="cls-3" d="M29.5,59a11.26,11.26,0,0,1-4.22-21.71,1.5,1.5,0,0,1,1.77.51,20.55,20.55,0,0,1,2.45,4.37,20.59,20.59,0,0,1,2.45-4.37,1.5,1.5,0,0,1,1.77-.51A11.26,11.26,0,0,1,29.5,59ZM25.33,40.6a8.25,8.25,0,1,0,8.33,0A17.27,17.27,0,0,0,31,49.72a1.5,1.5,0,0,1-1.5,1.49h0A1.5,1.5,0,0,1,28,49.72,17.26,17.26,0,0,0,25.33,40.6Z"/><path class="cls-4" d="M33.58,21.6A1.5,1.5,0,0,1,32.41,21a20.54,20.54,0,0,1-2.91-5,20.48,20.48,0,0,1-2.91,5,1.5,1.5,0,0,1-1.81.43,11.38,11.38,0,1,1,9.42,0A1.5,1.5,0,0,1,33.58,21.6ZM29.5,3a8.26,8.26,0,0,0-5.84,14.11A7.6,7.6,0,0,0,25,18.16a17.21,17.21,0,0,0,3-9.67,1.5,1.5,0,0,1,3,0,17.23,17.23,0,0,0,3,9.67,7.6,7.6,0,0,0,1.32-1.05A8.26,8.26,0,0,0,29.5,3Z"/></svg>