<svg id="图层_1" data-name="图层 1" xmlns="http://www.w3.org/2000/svg" xmlns:xlink="http://www.w3.org/1999/xlink" viewBox="0 0 56 51.82"><defs><style>.cls-1{fill:url(#未命名的渐变_9);}.cls-2{fill:url(#未命名的渐变_9-2);}.cls-3{fill:url(#未命名的渐变_9-3);}.cls-4{fill:url(#未命名的渐变_9-4);}.cls-5{fill:url(#未命名的渐变_9-5);}.cls-6{fill:url(#未命名的渐变_9-6);}.cls-7{fill:url(#未命名的渐变_9-7);}.cls-8{fill:url(#未命名的渐变_9-8);}.cls-9{fill:url(#未命名的渐变_9-9);}</style><linearGradient id="未命名的渐变_9" y1="40.97" x2="20.58" y2="40.97" gradientUnits="userSpaceOnUse"><stop offset="0" stop-color="#ff3b44"/><stop offset="1" stop-color="#ffbf41"/></linearGradient><linearGradient id="未命名的渐变_9-2" x1="37.79" y1="42.71" x2="56" y2="42.71" xlink:href="#未命名的渐变_9"/><linearGradient id="未命名的渐变_9-3" x1="36.4" y1="7.57" x2="51.54" y2="7.57" xlink:href="#未命名的渐变_9"/><linearGradient id="未命名的渐变_9-4" x1="4.6" y1="8.96" x2="19.19" y2="8.96" xlink:href="#未命名的渐变_9"/><linearGradient id="未命名的渐变_9-5" x1="17.01" y1="24.79" x2="41.5" y2="24.79" xlink:href="#未命名的渐变_9"/><linearGradient id="未命名的渐变_9-6" x1="35.28" y1="14.44" x2="41.15" y2="14.44" xlink:href="#未命名的渐变_9"/><linearGradient id="未命名的渐变_9-7" x1="35.91" y1="34.62" x2="41.99" y2="34.62" xlink:href="#未命名的渐变_9"/><linearGradient id="未命名的渐变_9-8" x1="15.55" y1="32.64" x2="21.14" y2="32.64" xlink:href="#未命名的渐变_9"/><linearGradient id="未命名的渐变_9-9" x1="15.27" y1="15.48" x2="22.11" y2="15.48" xlink:href="#未命名的渐变_9"/></defs><title>画板 16</title><path class="cls-1" d="M10.29,51.26A10.29,10.29,0,1,1,20.58,41,10.3,10.3,0,0,1,10.29,51.26Zm0-18A7.7,7.7,0,1,0,18,41,7.71,7.71,0,0,0,10.29,33.27Z"/><path class="cls-2" d="M46.9,51.82a9.1,9.1,0,1,1,9.1-9.1A9.12,9.12,0,0,1,46.9,51.82Zm0-15.62a6.51,6.51,0,1,0,6.51,6.51A6.52,6.52,0,0,0,46.9,36.2Z"/><path class="cls-3" d="M44,15.14a7.57,7.57,0,1,1,7.57-7.57A7.58,7.58,0,0,1,44,15.14ZM44,2.59a5,5,0,1,0,5,5A5,5,0,0,0,44,2.59Z"/><path class="cls-4" d="M11.89,16.26A7.29,7.29,0,1,1,19.19,9,7.3,7.3,0,0,1,11.89,16.26Zm0-12A4.7,4.7,0,1,0,16.59,9,4.71,4.71,0,0,0,11.89,4.26Z"/><path class="cls-5" d="M29.26,37A12.24,12.24,0,1,1,41.5,24.79,12.26,12.26,0,0,1,29.26,37Zm0-21.89a9.65,9.65,0,1,0,9.65,9.65A9.66,9.66,0,0,0,29.26,15.14Z"/><path class="cls-6" d="M36.58,17.37a1.3,1.3,0,0,1-.92-2.21l3.28-3.28a1.3,1.3,0,0,1,1.83,1.83L37.49,17A1.29,1.29,0,0,1,36.58,17.37Z"/><path class="cls-7" d="M40.69,37.66a1.29,1.29,0,0,1-.92-.38L36.29,33.8A1.3,1.3,0,0,1,38.12,32l3.49,3.49a1.3,1.3,0,0,1-.92,2.21Z"/><path class="cls-8" d="M16.84,35.43a1.3,1.3,0,0,1-.92-2.21l3-3a1.3,1.3,0,0,1,1.83,1.83l-3,3A1.29,1.29,0,0,1,16.84,35.43Z"/><path class="cls-9" d="M20.82,18.91a1.29,1.29,0,0,1-.92-.38l-4.25-4.25a1.3,1.3,0,1,1,1.83-1.83l4.25,4.25a1.3,1.3,0,0,1-.92,2.21Z"/></svg>