<svg id="图层_1" data-name="图层 1" xmlns="http://www.w3.org/2000/svg" xmlns:xlink="http://www.w3.org/1999/xlink" viewBox="0 0 56 56"><defs><style>.cls-1{fill:url(#未命名的渐变_9);}.cls-2{fill:url(#未命名的渐变_9-2);}</style><linearGradient id="未命名的渐变_9" y1="28" x2="56" y2="28" gradientUnits="userSpaceOnUse"><stop offset="0" stop-color="#ff3b44"/><stop offset="1" stop-color="#ffbf41"/></linearGradient><linearGradient id="未命名的渐变_9-2" x1="14.8" y1="28.02" x2="41.24" y2="28.02" xlink:href="#未命名的渐变_9"/></defs><title>画板 8</title><path class="cls-1" d="M28,0A28,28,0,1,0,56,28,28,28,0,0,0,28,0Zm0,53A25,25,0,1,1,53,28,25.05,25.05,0,0,1,28,53Z"/><path class="cls-2" d="M39.15,14.87l-16.31,7.3a1.49,1.49,0,0,0-.75.76L14.92,39.22a1.49,1.49,0,0,0,1.36,2.09,1.47,1.47,0,0,0,.59-.12L26.41,37a1.49,1.49,0,0,0,.77-2,1.52,1.52,0,0,0-2-.77l-6,2.63,4.76-10.82,7.48,7.48a1.49,1.49,0,0,0,2.41-.45l7.29-16.32a1.49,1.49,0,0,0-.31-1.66A1.51,1.51,0,0,0,39.15,14.87Zm-2.34,4.31L32,30l-6-6Z"/></svg>