<svg id="图层_1" data-name="图层 1" xmlns="http://www.w3.org/2000/svg" xmlns:xlink="http://www.w3.org/1999/xlink" viewBox="0 0 56 56"><defs><style>.cls-1{fill:url(#未命名的渐变_9);}</style><linearGradient id="未命名的渐变_9" y1="28" x2="56" y2="28" gradientUnits="userSpaceOnUse"><stop offset="0" stop-color="#ff3b44"/><stop offset="1" stop-color="#ffbf41"/></linearGradient></defs><title>画板 4</title><path class="cls-1" d="M28,0h-.61A1.48,1.48,0,0,0,25.9,1.48V27L6.45,40.7l-.32-.52A25,25,0,0,1,22.29,3.62l1-.2A1.48,1.48,0,0,0,22.73.51L21.67.72a28,28,0,0,0-18.11,41L4.75,43.6A1.48,1.48,0,0,0,6.87,44L27.42,29.55,48.2,43.06C46.5,45.84,40.83,53,28,53a24.89,24.89,0,0,1-17.53-7.16l-.64-.66a1.48,1.48,0,1,0-2.15,2l.72.73A27.84,27.84,0,0,0,28,56c17.75,0,23.29-12.31,23.52-12.83a1.49,1.49,0,0,0-.51-1.8L28.87,26.95V3A25,25,0,0,1,51.31,37.13l-.39,1a1.48,1.48,0,1,0,2.74,1.14l.42-1A28,28,0,0,0,28,0Z"/></svg>