<svg id="图层_1" data-name="图层 1" xmlns="http://www.w3.org/2000/svg" xmlns:xlink="http://www.w3.org/1999/xlink" viewBox="0 0 56 56"><defs><style>.cls-1{fill:url(#未命名的渐变_9);}</style><linearGradient id="未命名的渐变_9" y1="28" x2="56" y2="28" gradientUnits="userSpaceOnUse"><stop offset="0" stop-color="#ff3b44"/><stop offset="1" stop-color="#ffbf41"/></linearGradient></defs><title>画板 13</title><path class="cls-1" d="M27.31,14.25c-1.39,3.4-5,10.37-12.3,13a.68.68,0,0,0,0,1.3c7.54,2.31,11.12,9.91,12.39,13.37a.68.68,0,0,0,1.25,0c1.49-3.36,5.47-10.77,12.41-13.3a.68.68,0,0,0,0-1.3C34.21,25,30.25,17.61,28.73,14.15c0,0-.12-.69-.68-.69S27.33,14.19,27.31,14.25Zm.14,22.65c-.93-2.35-3.14-6.63-7.44-8.34a.81.81,0,0,1,0-1.49c4-1.83,6.23-5.63,7.25-7.91a.81.81,0,0,1,1.46,0c1.11,2.35,3.47,6.31,7.29,8a.82.82,0,0,1,0,1.51c-3.73,1.73-6.08,5.52-7.22,7.85l-.18.38c-.05.11-.17.91-.61.91S27.5,37,27.45,36.89Zm.54.41M28,56A28,28,0,1,1,39.67,2.54,1.33,1.33,0,0,1,38.55,5,25.37,25.37,0,1,0,44,8.39a1.33,1.33,0,0,1,1.69-2.07A28,28,0,0,1,28,56Z"/></svg>