<svg id="图层_1" data-name="图层 1" xmlns="http://www.w3.org/2000/svg" xmlns:xlink="http://www.w3.org/1999/xlink" viewBox="0 0 56 40.56"><defs><style>.cls-1{fill:url(#未命名的渐变_9);}.cls-2{fill:url(#未命名的渐变_9-2);}.cls-3{fill:url(#未命名的渐变_9-3);}.cls-4{fill:url(#未命名的渐变_9-4);}.cls-5{fill:url(#未命名的渐变_9-5);}</style><linearGradient id="未命名的渐变_9" x1="20.09" y1="20.27" x2="35.91" y2="20.27" gradientUnits="userSpaceOnUse"><stop offset="0" stop-color="#ff3b44"/><stop offset="1" stop-color="#ffbf41"/></linearGradient><linearGradient id="未命名的渐变_9-2" x1="0" y1="20.28" x2="11.05" y2="20.28" xlink:href="#未命名的渐变_9"/><linearGradient id="未命名的渐变_9-3" x1="44.95" y1="20.28" x2="56" y2="20.28" xlink:href="#未命名的渐变_9"/><linearGradient id="未命名的渐变_9-4" x1="9.77" y1="20.28" x2="17.96" y2="20.28" xlink:href="#未命名的渐变_9"/><linearGradient id="未命名的渐变_9-5" x1="38.04" y1="20.28" x2="46.23" y2="20.28" xlink:href="#未命名的渐变_9"/></defs><title>画板 6</title><path class="cls-1" d="M28,12.36a7.91,7.91,0,1,0,7.91,7.91A7.92,7.92,0,0,0,28,12.36Zm0,12.49a4.57,4.57,0,1,1,4.57-4.57A4.58,4.58,0,0,1,28,24.85Z"/><path class="cls-2" d="M3.34,20.27A24.5,24.5,0,0,1,10.56,2.84a1.67,1.67,0,0,0,0-2.36A1.71,1.71,0,0,0,8.2.47a28,28,0,0,0,0,39.6,1.67,1.67,0,0,0,2.36-2.36A24.5,24.5,0,0,1,3.34,20.27Z"/><path class="cls-3" d="M47.8.47a1.71,1.71,0,0,0-2.36,0,1.67,1.67,0,0,0,0,2.36,24.66,24.66,0,0,1,0,34.87,1.67,1.67,0,1,0,2.36,2.36,28,28,0,0,0,0-39.6Z"/><path class="cls-4" d="M18,8.57a1.66,1.66,0,0,0-.49-1.18,1.71,1.71,0,0,0-2.36,0,18.23,18.23,0,0,0,0,25.78,1.66,1.66,0,0,0,1.18.49,1.68,1.68,0,0,0,1.18-.49,1.67,1.67,0,0,0,0-2.36,14.89,14.89,0,0,1,0-21.05A1.66,1.66,0,0,0,18,8.57Z"/><path class="cls-5" d="M40.89,7.38a1.71,1.71,0,0,0-2.36,0,1.67,1.67,0,0,0,0,2.36,14.89,14.89,0,0,1,0,21.05,1.67,1.67,0,0,0,2.36,2.36,18.23,18.23,0,0,0,0-25.78Z"/></svg>