<svg id="图层_1" data-name="图层 1" xmlns="http://www.w3.org/2000/svg" xmlns:xlink="http://www.w3.org/1999/xlink" viewBox="0 0 56 56"><defs><style>.cls-1{fill:url(#未命名的渐变_9);}.cls-2{fill:url(#未命名的渐变_9-2);}</style><linearGradient id="未命名的渐变_9" x1="9.37" y1="1.09" x2="57.37" y2="70.42" gradientUnits="userSpaceOnUse"><stop offset="0" stop-color="#ff3b44"/><stop offset="1" stop-color="#ffbf41"/></linearGradient><linearGradient id="未命名的渐变_9-2" x1="8.07" y1="1.99" x2="56.07" y2="71.32" xlink:href="#未命名的渐变_9"/></defs><title>画板 12</title><path class="cls-1" d="M28,56A28,28,0,1,1,56,28,28,28,0,0,1,28,56ZM28,2.67A25.33,25.33,0,1,0,53.33,28,25.36,25.36,0,0,0,28,2.67Z"/><path class="cls-2" d="M16.67,38.86a3.33,3.33,0,0,1-3.07-2.09,9.24,9.24,0,0,1-.72-3.94c0-6.53,3.87-16.39,9.7-16.39a6.65,6.65,0,0,1,2.45.76,8.82,8.82,0,0,0,3,.92,8.3,8.3,0,0,0,2.84-.88,7,7,0,0,1,2.62-.79c5.8,0,9.65,9.81,9.65,16.29a9.33,9.33,0,0,1-.72,4,3.35,3.35,0,0,1-3.08,2.1c-1.76,0-3.43-1.14-5.2-2.36s-3.91-2.68-6.25-2.93c-2.32.23-3.67,1.39-5.1,2.62S19.59,38.86,16.67,38.86Zm5.9-19.76c-3.54,0-7,7.86-7,13.73A6.93,6.93,0,0,0,16,35.62c.27.57.53.57.66.57,1.93,0,3-.92,4.36-2.09a11.31,11.31,0,0,1,6.86-3.26c3.26.33,5.74,2,7.73,3.39,1.42,1,2.76,1.89,3.69,1.89.14,0,.39,0,.67-.59a7,7,0,0,0,.46-2.82c0-5.82-3.45-13.62-7-13.62a7.75,7.75,0,0,0-1.55.57A10.09,10.09,0,0,1,28,20.77a10.61,10.61,0,0,1-4-1.14A8.38,8.38,0,0,0,22.58,19.1Z"/></svg>