<svg id="图层_1" data-name="图层 1" xmlns="http://www.w3.org/2000/svg" xmlns:xlink="http://www.w3.org/1999/xlink" viewBox="0 0 54 53.93"><defs><style>.cls-1{fill:url(#未命名的渐变_9);}.cls-2{fill:url(#未命名的渐变_9-2);}.cls-3{fill:url(#未命名的渐变_9-3);}.cls-4{fill:url(#未命名的渐变_9-4);}</style><linearGradient id="未命名的渐变_9" x1="4.4" y1="4" x2="49.44" y2="51.3" gradientUnits="userSpaceOnUse"><stop offset="0" stop-color="#ff3b44"/><stop offset="1" stop-color="#ffbf41"/></linearGradient><linearGradient id="未命名的渐变_9-2" x1="18.1" y1="-9.05" x2="63.15" y2="38.25" xlink:href="#未命名的渐变_9"/><linearGradient id="未命名的渐变_9-3" x1="5.16" y1="3.27" x2="50.21" y2="50.57" xlink:href="#未命名的渐变_9"/><linearGradient id="未命名的渐变_9-4" x1="-8.54" y1="16.32" x2="36.5" y2="63.62" xlink:href="#未命名的渐变_9"/></defs><title>画板 10</title><path class="cls-1" d="M12.37,0a12.37,12.37,0,0,0,0,24.74H23.31a1.42,1.42,0,0,0,1.42-1.42V12.37A12.38,12.38,0,0,0,12.37,0Zm9.53,21.89H12.37a9.53,9.53,0,1,1,9.53-9.53Z"/><path class="cls-2" d="M30.69,24.74H41.63A12.37,12.37,0,1,0,29.27,12.37V23.31A1.42,1.42,0,0,0,30.69,24.74Zm1.42-12.37a9.52,9.52,0,1,1,9.52,9.53H32.11Z"/><path class="cls-3" d="M41.63,29.2H30.69a1.43,1.43,0,0,0-1.42,1.42V41.56A12.37,12.37,0,1,0,41.63,29.2Zm0,21.89a9.54,9.54,0,0,1-9.52-9.53V34l8.05,8.05a1.42,1.42,0,0,0,2-2L34.12,32h7.51a9.53,9.53,0,0,1,0,19.05Z"/><path class="cls-4" d="M23.31,29.2H12.37A12.37,12.37,0,1,0,24.73,41.56V30.62A1.42,1.42,0,0,0,23.31,29.2ZM21.89,41.56A9.52,9.52,0,1,1,12.37,32h9.53Z"/></svg>