<svg id="图层_1" data-name="图层 1" xmlns="http://www.w3.org/2000/svg" xmlns:xlink="http://www.w3.org/1999/xlink" viewBox="0 0 56 59.1"><defs><style>.cls-1{fill:url(#未命名的渐变_9);}.cls-2{fill:url(#未命名的渐变_9-2);}.cls-3{fill:url(#未命名的渐变_9-3);}.cls-4{fill:url(#未命名的渐变_9-4);}</style><linearGradient id="未命名的渐变_9" x1="7.57" y1="5.59" x2="49.58" y2="51.69" gradientUnits="userSpaceOnUse"><stop offset="0" stop-color="#ff3b44"/><stop offset="1" stop-color="#ffbf41"/></linearGradient><linearGradient id="未命名的渐变_9-2" x1="7.59" y1="5.57" x2="49.59" y2="51.67" xlink:href="#未命名的渐变_9"/><linearGradient id="未命名的渐变_9-3" x1="-1.84" y1="14.16" x2="40.17" y2="60.26" xlink:href="#未命名的渐变_9"/><linearGradient id="未命名的渐变_9-4" x1="7.58" y1="5.59" x2="49.58" y2="51.69" xlink:href="#未命名的渐变_9"/></defs><title>画板 15</title><path class="cls-1" d="M40,53.15a1.33,1.33,0,0,1-.6-2.52,25.33,25.33,0,1,0-23.68-.46,1.33,1.33,0,1,1-1.29,2.33A28,28,0,1,1,40.6,53,1.32,1.32,0,0,1,40,53.15Z"/><path class="cls-2" d="M38,43.68a1.33,1.33,0,0,1-.76-2.43,16.19,16.19,0,1,0-18.51,0,1.33,1.33,0,0,1-1.53,2.19,18.85,18.85,0,1,1,21.56,0A1.33,1.33,0,0,1,38,43.68Z"/><path class="cls-3" d="M28,59.1a4.24,4.24,0,0,1-3.81-3c-1-3.33-2.62-9.77-2.27-15.38A5.9,5.9,0,0,1,28,36.33c4,0,5.69,2.72,6,4.16.38,5.81-1.24,12.23-2.23,15.56A4.23,4.23,0,0,1,28,59.1ZM28,39c-2.82,0-3.42,1.89-3.48,2.11-.3,5.14,1.44,11.65,2.2,14.19A1.62,1.62,0,0,0,28,56.43c.51,0,1.08-.61,1.24-1.14.76-2.54,2.5-9,2.15-14.42h0S30.83,39,28,39Z"/><path class="cls-4" d="M28,33.81a5.81,5.81,0,0,1-4.76-9.13,6,6,0,0,1,8.09-1.44A5.81,5.81,0,0,1,28,33.81Zm0-8.95a3.14,3.14,0,0,0-1.8,5.72,3.23,3.23,0,0,0,4.37-.78A3.14,3.14,0,0,0,28,24.86Z"/></svg>