<svg xmlns="http://www.w3.org/2000/svg" viewBox="0 0 113.189 113.189">
  <defs>
    <style>
      .cls-1 {
        fill: #ecc28f;
      }

      .cls-2 {
        fill: #e6b06e;
      }

      .cls-3 {
        fill: #efcfac;
      }

      .cls-4 {
        fill: #e29d4d;
      }

      .cls-5, .cls-7 {
        fill: #fff;
      }

      .cls-5, .cls-6 {
        stroke: #fff;
      }

      .cls-5, .cls-6, .cls-8 {
        stroke-miterlimit: 10;
      }

      .cls-5 {
        stroke-width: 0.702px;
      }

      .cls-6, .cls-8 {
        fill: none;
      }

      .cls-6 {
        stroke-width: 2.09px;
      }

      .cls-8 {
        stroke: #e29d4d;
        stroke-width: 1.589px;
      }
    </style>
  </defs>
  <g id="组_282" data-name="组 282" transform="translate(-1213.006 -232.206)">
    <path id="路径_226" data-name="路径 226" class="cls-1" d="M1273.3,287l21.1-48.3a55.768,55.768,0,0,0-52.2,1.5v20.9Z"/>
    <path id="路径_227" data-name="路径 227" class="cls-2" d="M1242.1,240.3a55.741,55.741,0,0,0-13.1,10.2l13,10.8Z"/>
    <path id="路径_228" data-name="路径 228" class="cls-3" d="M1314.9,321.5a55.814,55.814,0,0,0-12.6-77.9,63.986,63.986,0,0,0-7.9-4.8l-21.1,48.3Z"/>
    <path id="路径_229" data-name="路径 229" class="cls-1" d="M1273.3,287l-23.5,54a55.778,55.778,0,0,0,65.1-19.5Z"/>
    <path id="路径_230" data-name="路径 230" class="cls-2" d="M1242.1,261.2v76.2a53.957,53.957,0,0,0,7.7,3.6l23.5-54Z"/>
    <path id="路径_231" data-name="路径 231" class="cls-4" d="M1229,250.4a55.791,55.791,0,0,0,2.2,78.9,61.663,61.663,0,0,0,10.9,8.1V261.2Z"/>
    <rect id="矩形_20" data-name="矩形 20" class="cls-5" width="1" height="1.3" transform="translate(1287.8 245)"/>
    <rect id="矩形_21" data-name="矩形 21" class="cls-5" width="1" height="1.3" transform="translate(1292 245)"/>
    <rect id="矩形_22" data-name="矩形 22" class="cls-5" width="1" height="1.3" transform="translate(1296.2 245)"/>
    <rect id="矩形_23" data-name="矩形 23" class="cls-5" width="1" height="1.3" transform="translate(1262.8 245)"/>
    <rect id="矩形_24" data-name="矩形 24" class="cls-5" width="1" height="1.3" transform="translate(1267 245)"/>
    <rect id="矩形_25" data-name="矩形 25" class="cls-5" width="1" height="1.3" transform="translate(1271.2 245)"/>
    <rect id="矩形_26" data-name="矩形 26" class="cls-5" width="1" height="1.3" transform="translate(1300.3 245)"/>
    <rect id="矩形_27" data-name="矩形 27" class="cls-5" width="1" height="1.3" transform="translate(1301.6 293.7)"/>
    <rect id="矩形_28" data-name="矩形 28" class="cls-5" width="1" height="1.3" transform="translate(1305.8 293.7)"/>
    <rect id="矩形_29" data-name="矩形 29" class="cls-5" width="1" height="1.3" transform="translate(1310 293.7)"/>
    <rect id="矩形_30" data-name="矩形 30" class="cls-5" width="1" height="1.3" transform="translate(1305.6 313.8)"/>
    <rect id="矩形_31" data-name="矩形 31" class="cls-5" width="1" height="1.3" transform="translate(1309.7 313.8)"/>
    <rect id="矩形_32" data-name="矩形 32" class="cls-5" width="1" height="1.3" transform="translate(1313.9 313.8)"/>
    <rect id="矩形_33" data-name="矩形 33" class="cls-5" width="1" height="1.3" transform="translate(1288.8 332.5)"/>
    <rect id="矩形_34" data-name="矩形 34" class="cls-5" width="1" height="1.3" transform="translate(1293 332.5)"/>
    <rect id="矩形_35" data-name="矩形 35" class="cls-5" width="1" height="1.3" transform="translate(1297.1 332.5)"/>
    <rect id="矩形_36" data-name="矩形 36" class="cls-5" width="1" height="1.3" transform="translate(1314.1 293.7)"/>
    <rect id="矩形_37" data-name="矩形 37" class="cls-5" width="1" height="1.3" transform="translate(1318.3 293.7)"/>
    <rect id="矩形_38" data-name="矩形 38" class="cls-5" width="1" height="1.3" transform="translate(1277.5 313.8)"/>
    <rect id="矩形_39" data-name="矩形 39" class="cls-5" width="1" height="1.3" transform="translate(1281.7 313.8)"/>
    <rect id="矩形_40" data-name="矩形 40" class="cls-5" width="1" height="1.3" transform="translate(1285.8 313.8)"/>
    <rect id="矩形_41" data-name="矩形 41" class="cls-5" width="1" height="1.3" transform="translate(1290 313.8)"/>
    <rect id="矩形_42" data-name="矩形 42" class="cls-5" width="1" height="1.3" transform="translate(1259.7 332.6)"/>
    <rect id="矩形_43" data-name="矩形 43" class="cls-5" width="1" height="1.3" transform="translate(1263.8 332.6)"/>
    <rect id="矩形_44" data-name="矩形 44" class="cls-5" width="1" height="1.3" transform="translate(1268 332.6)"/>
    <rect id="矩形_45" data-name="矩形 45" class="cls-5" width="1" height="1.3" transform="translate(1272.2 332.6)"/>
    <rect id="矩形_46" data-name="矩形 46" class="cls-5" width="1" height="1.3" transform="translate(1322.4 293.7)"/>
    <rect id="矩形_47" data-name="矩形 47" class="cls-5" width="1" height="1.3" transform="translate(1277.2 276.7)"/>
    <rect id="矩形_48" data-name="矩形 48" class="cls-5" width="1" height="1.3" transform="translate(1281.4 276.7)"/>
    <rect id="矩形_49" data-name="矩形 49" class="cls-5" width="1" height="1.3" transform="translate(1285.6 276.7)"/>
    <rect id="矩形_50" data-name="矩形 50" class="cls-5" width="1" height="1.3" transform="translate(1289.7 276.7)"/>
    <rect id="矩形_51" data-name="矩形 51" class="cls-5" width="1" height="1.3" transform="translate(1293.9 276.7)"/>
    <rect id="矩形_52" data-name="矩形 52" class="cls-5" width="1" height="1.3" transform="translate(1298.1 276.7)"/>
    <rect id="矩形_53" data-name="矩形 53" class="cls-5" width="1" height="1.3" transform="translate(1316.2 276.7)"/>
    <rect id="矩形_54" data-name="矩形 54" class="cls-5" width="1" height="1.3" transform="translate(1320.4 276.7)"/>
    <rect id="矩形_55" data-name="矩形 55" class="cls-5" width="1" height="1.3" transform="translate(1282.3 293.7)"/>
    <rect id="矩形_56" data-name="矩形 56" class="cls-5" width="1" height="1.3" transform="translate(1286.4 293.7)"/>
    <rect id="矩形_57" data-name="矩形 57" class="cls-5" width="1" height="1.3" transform="translate(1301 260.9)"/>
    <rect id="矩形_58" data-name="矩形 58" class="cls-5" width="1" height="1.3" transform="translate(1305.2 260.9)"/>
    <rect id="矩形_59" data-name="矩形 59" class="cls-5" width="1" height="1.3" transform="translate(1309.3 260.9)"/>
    <rect id="矩形_60" data-name="矩形 60" class="cls-5" width="1" height="1.3" transform="translate(1274.8 260.9)"/>
    <rect id="矩形_61" data-name="矩形 61" class="cls-5" width="1" height="1.3" transform="translate(1279 260.9)"/>
    <rect id="矩形_62" data-name="矩形 62" class="cls-5" width="1" height="1.3" transform="translate(1283.2 260.9)"/>
    <rect id="矩形_63" data-name="矩形 63" class="cls-5" width="1" height="1.3" transform="translate(1313.5 260.9)"/>
    <path id="路径_232" data-name="路径 232" class="cls-6" d="M1253.8,342.9l4.6-21a33.139,33.139,0,0,0,14,.9,66.8,66.8,0,0,0,1.8-8.9,40.188,40.188,0,0,0-.1-10.4,44.474,44.474,0,0,0,7.3-1.2,37.465,37.465,0,0,0-.9-8.2c-1.1-5.2-6.1-14-7-16-.9-1.9-2.1-4.6-1.5-6a12.1,12.1,0,0,0,.7-3.7c.4-5.5-2.4-12.4-2.4-12.4a27.861,27.861,0,0,0-19.4-15.1c-2.4-.3-8.1-.6-8.1-.6"/>
    <path id="路径_233" data-name="路径 233" class="cls-7" d="M1251.9,292.4a2.993,2.993,0,0,1-.4,1,1.81,1.81,0,0,0,.1,1.6l2,2.8-2.7,2.7-2.9-1.9a1.689,1.689,0,0,0-1-.3,2.354,2.354,0,0,0-.8.2,3.582,3.582,0,0,1-1.1.4,1.63,1.63,0,0,0-1.1,1.3l-.6,3.4h-3.7l-.6-3.4a1.753,1.753,0,0,0-1.2-1.3c-.3-.1-.7-.3-1-.4a1.854,1.854,0,0,0-.7-.2,1.93,1.93,0,0,0-1,.3l-2.8,2-2.7-2.7,2-2.8a1.514,1.514,0,0,0,.1-1.7,3.583,3.583,0,0,1-.4-1.1,1.63,1.63,0,0,0-1.3-1.1l-3.4-.6v-3.8l3.4-.6a1.63,1.63,0,0,0,1.3-1.1,4.175,4.175,0,0,1,.4-1,1.514,1.514,0,0,0-.1-1.7l-2-2.8,2.7-2.7,2.8,2a1.689,1.689,0,0,0,1,.3,1.445,1.445,0,0,0,.7-.2,4.179,4.179,0,0,1,1-.4,1.753,1.753,0,0,0,1.2-1.3l.6-3.4h3.8l.6,3.4a1.753,1.753,0,0,0,1.2,1.3,4.18,4.18,0,0,1,1,.4,1.884,1.884,0,0,0,.8.2,1.69,1.69,0,0,0,1-.3l2.8-2.1,2.7,2.7-2,2.8a1.669,1.669,0,0,0-.1,1.8,3,3,0,0,1,.4,1,1.482,1.482,0,0,0,1.3,1.1l3.4.6v3.8l-3.4.7A1.63,1.63,0,0,0,1251.9,292.4Z"/>
    <circle id="椭圆_79" data-name="椭圆 79" class="cls-4" cx="5.8" cy="5.8" r="5.8" transform="translate(1236.1 283)"/>
    <circle id="椭圆_80" data-name="椭圆 80" class="cls-8" cx="55.8" cy="55.8" r="55.8" transform="translate(1213.8 233)"/>
    <g id="组_276" data-name="组 276">
      <path id="路径_234" data-name="路径 234" class="cls-4" d="M1280.9,339.1a5.6,5.6,0,1,1,5.6-5.6A5.591,5.591,0,0,1,1280.9,339.1Z"/>
      <path id="路径_235" data-name="路径 235" class="cls-7" d="M1280.9,328.7a4.7,4.7,0,1,1-4.7,4.7,4.695,4.695,0,0,1,4.7-4.7m0-1.8a6.5,6.5,0,1,0,6.5,6.5,6.487,6.487,0,0,0-6.5-6.5Z"/>
    </g>
    <g id="组_277" data-name="组 277">
      <path id="路径_236" data-name="路径 236" class="cls-4" d="M1298.4,320.4a5.6,5.6,0,1,1,5.6-5.6A5.591,5.591,0,0,1,1298.4,320.4Z"/>
      <path id="路径_237" data-name="路径 237" class="cls-7" d="M1298.4,310a4.7,4.7,0,1,1-4.7,4.7,4.695,4.695,0,0,1,4.7-4.7m0-1.8a6.5,6.5,0,1,0,6.5,6.5,6.487,6.487,0,0,0-6.5-6.5Z"/>
    </g>
    <g id="组_278" data-name="组 278">
      <path id="路径_238" data-name="路径 238" class="cls-4" d="M1294.4,300.1a5.6,5.6,0,1,1,5.6-5.6A5.591,5.591,0,0,1,1294.4,300.1Z"/>
      <path id="路径_239" data-name="路径 239" class="cls-7" d="M1294.4,289.7a4.7,4.7,0,1,1-4.7,4.7,4.695,4.695,0,0,1,4.7-4.7m0-1.8a6.5,6.5,0,1,0,6.5,6.5,6.487,6.487,0,0,0-6.5-6.5Z"/>
    </g>
    <g id="组_279" data-name="组 279">
      <path id="路径_240" data-name="路径 240" class="cls-4" d="M1307.3,282.8a5.6,5.6,0,1,1,5.6-5.6A5.591,5.591,0,0,1,1307.3,282.8Z"/>
      <path id="路径_241" data-name="路径 241" class="cls-7" d="M1307.3,272.4a4.7,4.7,0,1,1-4.7,4.7,4.695,4.695,0,0,1,4.7-4.7m0-1.8a6.5,6.5,0,1,0,6.5,6.5,6.487,6.487,0,0,0-6.5-6.5Z"/>
    </g>
    <g id="组_280" data-name="组 280">
      <path id="路径_242" data-name="路径 242" class="cls-4" d="M1292.4,267.5a5.6,5.6,0,1,1,5.6-5.6A5.591,5.591,0,0,1,1292.4,267.5Z"/>
      <path id="路径_243" data-name="路径 243" class="cls-7" d="M1292.4,257.1a4.7,4.7,0,1,1-4.7,4.7,4.695,4.695,0,0,1,4.7-4.7m0-1.8a6.5,6.5,0,1,0,6.5,6.5,6.487,6.487,0,0,0-6.5-6.5Z"/>
    </g>
    <g id="组_281" data-name="组 281">
      <path id="路径_244" data-name="路径 244" class="cls-4" d="M1280.3,251.5a5.6,5.6,0,1,1,5.6-5.6A5.591,5.591,0,0,1,1280.3,251.5Z"/>
      <path id="路径_245" data-name="路径 245" class="cls-7" d="M1280.3,241.1a4.7,4.7,0,1,1-4.7,4.7,4.695,4.695,0,0,1,4.7-4.7m0-1.8a6.5,6.5,0,1,0,6.5,6.5,6.487,6.487,0,0,0-6.5-6.5Z"/>
    </g>
  </g>
</svg>
