<svg xmlns="http://www.w3.org/2000/svg" xmlns:xlink="http://www.w3.org/1999/xlink" viewBox="0 0 225.4 200.3">
  <defs>
    <style>
      .cls-1 {
        fill: #dcd0c1;
      }

      .cls-2 {
        fill: #c5b097;
      }

      .cls-3 {
        fill: #beeffc;
      }

      .cls-4 {
        fill: #d2a572;
      }

      .cls-5 {
        fill: #b06003;
      }

      .cls-6 {
        fill: #e2c5a4;
      }

      .cls-7 {
        clip-path: url(#clip-path);
      }

      .cls-8 {
        fill: #fff;
      }

      .cls-9 {
        fill: #f4d4b3;
      }

      .cls-10 {
        fill: #ecc28f;
      }

      .cls-11 {
        fill: #f2b5ca;
      }

      .cls-12 {
        clip-path: url(#clip-path-2);
      }

      .cls-13 {
        fill: #e6b06e;
      }

      .cls-14 {
        clip-path: url(#clip-path-3);
      }

      .cls-15 {
        fill: #e29d4d;
      }

      .cls-16 {
        fill: #efcfac;
      }

      .cls-17 {
        fill: #efcaa1;
      }

      .cls-18 {
        clip-path: url(#clip-path-4);
      }

      .cls-19 {
        fill: #e6a051;
      }

      .cls-20 {
        fill: #c8975e;
      }

      .cls-21 {
        fill: #7a4100;
      }

      .cls-22 {
        fill: #dbba94;
      }

      .cls-23 {
        fill: #8e4c00;
      }

      .cls-24 {
        fill: #e2c8aa;
      }

      .cls-25 {
        clip-path: url(#clip-path-5);
      }

      .cls-26 {
        clip-path: url(#clip-path-6);
      }

      .cls-27 {
        fill: #f3c187;
      }

      .cls-28 {
        fill: #ebb270;
      }

      .cls-29 {
        clip-path: url(#clip-path-7);
      }
    </style>
    <clipPath id="clip-path">
      <path id="路径_8" data-name="路径 8" d="M1600.6,392l-4-8.4,6-1.8,4,8.4Z"/>
    </clipPath>
    <clipPath id="clip-path-2">
      <path id="路径_13" data-name="路径 13" d="M1506.3,527l-5.3-11.1,7.9-2.4,5.3,11.1Z"/>
    </clipPath>
    <clipPath id="clip-path-3">
      <path id="路径_18" data-name="路径 18" d="M1545.7,488.4l6.7-13.7,9,2.9-6.7,13.6Z"/>
    </clipPath>
    <clipPath id="clip-path-4">
      <path id="路径_32" data-name="路径 32" d="M1444,427.2l4.8-9.9,6.5,2.1-4.8,9.8Z"/>
    </clipPath>
    <clipPath id="clip-path-5">
      <path id="路径_72" data-name="路径 72" d="M1477.2,462.5l-5.3-11.1,8-2.4,5.3,11.1Z"/>
    </clipPath>
    <clipPath id="clip-path-6">
      <path id="路径_81" data-name="路径 81" d="M1548.2,534l-3-6.4,4.5-1.3,3,6.3Z"/>
    </clipPath>
    <clipPath id="clip-path-7">
      <path id="路径_98" data-name="路径 98" d="M1590.6,459.9l6-12.3,8.1,2.5-6,12.4Z"/>
    </clipPath>
  </defs>
  <g id="组_145" data-name="组 145" transform="translate(-1405.4 -353.1)">
    <g id="组_12" data-name="组 12">
      <g id="组_4" data-name="组 4">
        <g id="组_1" data-name="组 1">
          <path id="路径_1" data-name="路径 1" class="cls-1" d="M1630.8,375.1v13.7L1612.2,400V385.9Z"/>
        </g>
        <g id="组_2" data-name="组 2">
          <path id="路径_2" data-name="路径 2" class="cls-2" d="M1612.2,400l-18.6-10.8V375.4l18.6,10.5Z"/>
        </g>
        <g id="组_3" data-name="组 3">
          <path id="路径_3" data-name="路径 3" class="cls-3" d="M1612.2,385.9l-18.6-10.5,18.5-11.1,18.7,10.8Z"/>
        </g>
      </g>
      <g id="组_8" data-name="组 8">
        <g id="组_5" data-name="组 5">
          <path id="路径_4" data-name="路径 4" class="cls-4" d="M1630.7,367.1v8.3l-18.5,11.2v-8.7Z"/>
        </g>
        <g id="组_6" data-name="组 6">
          <path id="路径_5" data-name="路径 5" class="cls-5" d="M1612.2,386.6l-18.6-10.8v-8.4l18.6,10.5Z"/>
        </g>
        <g id="组_7" data-name="组 7">
          <path id="路径_6" data-name="路径 6" class="cls-6" d="M1612.2,377.9l-18.6-10.5,18.5-11.1,18.6,10.8Z"/>
        </g>
      </g>
      <g id="组_11" data-name="组 11">
        <g id="组_10" data-name="组 10">
          <g id="组_9" data-name="组 9" class="cls-7">
            <path id="路径_7" data-name="路径 7" class="cls-8" d="M1602.9,389.6c-1.1.3-2.5-.6-3.2-2.1s-.4-3,.6-3.3c1.1-.3,2.5.6,3.2,2.1.8,1.5.5,2.9-.6,3.3m-3.3-6.9c-1.7.5-2.1,2.8-1,5.1s3.3,3.8,5,3.3,2.1-2.8,1-5.1c-1.1-2.4-3.3-3.8-5-3.3"/>
          </g>
        </g>
      </g>
    </g>
    <g id="组_20" data-name="组 20">
      <g id="组_16" data-name="组 16">
        <g id="组_13" data-name="组 13">
          <path id="路径_9" data-name="路径 9" class="cls-9" d="M1573.2,480.7v24.4l-54,32.5V512.2Z"/>
        </g>
        <g id="组_14" data-name="组 14">
          <path id="路径_10" data-name="路径 10" class="cls-10" d="M1519.2,537.6l-54-31.4V481.8l54,30.4Z"/>
        </g>
        <g id="组_15" data-name="组 15">
          <path id="路径_11" data-name="路径 11" class="cls-11" d="M1519.2,512.2l-54-30.4,53.8-32.3,54.2,31.2Z"/>
        </g>
      </g>
      <g id="组_19" data-name="组 19">
        <g id="组_18" data-name="组 18">
          <g id="组_17" data-name="组 17" class="cls-12">
            <path id="路径_12" data-name="路径 12" class="cls-8" d="M1509.3,523.8c-1.4.4-3.3-.8-4.3-2.8s-.6-3.9.9-4.3c1.4-.4,3.3.8,4.3,2.8s.5,3.9-.9,4.3m-4.3-9.1c-2.2.7-2.8,3.7-1.3,6.8s4.4,5,6.6,4.4c2.2-.7,2.8-3.7,1.3-6.8s-4.4-5.1-6.6-4.4"/>
          </g>
        </g>
      </g>
    </g>
    <g id="组_28" data-name="组 28">
      <g id="组_24" data-name="组 24">
        <g id="组_21" data-name="组 21">
          <path id="路径_14" data-name="路径 14" class="cls-10" d="M1573.2,457.5v24.4l-54,32.4V488.9Z"/>
        </g>
        <g id="组_22" data-name="组 22">
          <path id="路径_15" data-name="路径 15" class="cls-13" d="M1519.2,514.3l-54-31.4V458.5l54,30.4Z"/>
        </g>
        <g id="组_23" data-name="组 23">
          <path id="路径_16" data-name="路径 16" class="cls-11" d="M1519.2,488.9l-54-30.4,53.8-32.2,54.2,31.2Z"/>
        </g>
      </g>
      <g id="组_27" data-name="组 27">
        <g id="组_26" data-name="组 26">
          <g id="组_25" data-name="组 25" class="cls-14">
            <path id="路径_17" data-name="路径 17" class="cls-8" d="M1551.4,487.4c-1.6-.5-1.9-2.9-.7-5.3s3.5-4,5-3.5c1.6.5,1.9,2.9.7,5.3s-3.4,4-5,3.5m5.5-11.2c-2.5-.8-6,1.6-7.8,5.4-1.9,3.8-1.4,7.5,1.1,8.2,2.5.8,6-1.6,7.8-5.4,1.9-3.8,1.4-7.4-1.1-8.2"/>
          </g>
        </g>
      </g>
    </g>
    <g id="组_37" data-name="组 37">
      <g id="组_32" data-name="组 32">
        <g id="组_29" data-name="组 29">
          <path id="路径_19" data-name="路径 19" class="cls-1" d="M1485.4,515.8v20.7l-28.1,16.9V532.1Z"/>
        </g>
        <g id="组_30" data-name="组 30">
          <path id="路径_20" data-name="路径 20" class="cls-10" d="M1457.3,553.4l-28-16.3V516.3l28,15.8Z"/>
        </g>
        <g id="组_31" data-name="组 31">
          <path id="路径_21" data-name="路径 21" class="cls-3" d="M1457.3,532.1l-28-15.8,28-16.7,28.1,16.2Z"/>
        </g>
      </g>
      <g id="组_36" data-name="组 36">
        <g id="组_33" data-name="组 33">
          <path id="路径_22" data-name="路径 22" class="cls-4" d="M1485.4,503.3V516l-28.1,16.8V519.6Z"/>
        </g>
        <g id="组_34" data-name="组 34">
          <path id="路径_23" data-name="路径 23" class="cls-15" d="M1457.3,532.8l-28-16.3V503.8l28,15.8Z"/>
        </g>
        <g id="组_35" data-name="组 35">
          <path id="路径_24" data-name="路径 24" class="cls-6" d="M1457.3,519.6l-28-15.8,28-16.7,28.1,16.2Z"/>
        </g>
      </g>
    </g>
    <g id="组_49" data-name="组 49">
      <g id="组_41" data-name="组 41">
        <g id="组_38" data-name="组 38">
          <path id="路径_25" data-name="路径 25" class="cls-16" d="M1461.5,406.3V427l-28.1,16.9V422.6Z"/>
        </g>
        <g id="组_39" data-name="组 39">
          <path id="路径_26" data-name="路径 26" class="cls-10" d="M1433.4,443.9l-28-16.3V406.8l28,15.8Z"/>
        </g>
        <g id="组_40" data-name="组 40">
          <path id="路径_27" data-name="路径 27" class="cls-3" d="M1433.4,422.6l-28-15.8,28-16.7,28.1,16.2Z"/>
        </g>
      </g>
      <g id="组_45" data-name="组 45">
        <g id="组_42" data-name="组 42">
          <path id="路径_28" data-name="路径 28" class="cls-10" d="M1461.5,393.8v12.6l-28.1,16.9V410.1Z"/>
        </g>
        <g id="组_43" data-name="组 43">
          <path id="路径_29" data-name="路径 29" class="cls-13" d="M1433.4,423.3l-28-16.3V394.3l28,15.8Z"/>
        </g>
        <g id="组_44" data-name="组 44">
          <path id="路径_30" data-name="路径 30" class="cls-17" d="M1433.4,410.1l-28-15.8,28-16.7,28.1,16.2Z"/>
        </g>
      </g>
      <g id="组_48" data-name="组 48">
        <g id="组_47" data-name="组 47">
          <g id="组_46" data-name="组 46" class="cls-18">
            <path id="路径_31" data-name="路径 31" class="cls-8" d="M1448.1,426.5c-1.2-.4-1.4-2.1-.5-3.8s2.5-2.9,3.6-2.5,1.4,2.1.5,3.8c-.8,1.7-2.5,2.8-3.6,2.5m4-8.1c-1.8-.6-4.3,1.2-5.7,3.9-1.3,2.7-1,5.4.8,6s4.3-1.2,5.7-3.9c1.3-2.8,1-5.5-.8-6"/>
          </g>
        </g>
      </g>
    </g>
    <g id="组_52" data-name="组 52">
      <g id="组_51" data-name="组 51">
        <g id="组_50" data-name="组 50">
          <path id="路径_33" data-name="路径 33" class="cls-19" d="M1427.1,387.9a5.584,5.584,0,0,0-.8.5l.3.3-.5.3c-.1,0-.1-.1-.2-.1-1.5,1.7-.9,4.1,1.7,5.8l7.2,5,.5-.3-7.2-5c-2.8-2-3-4.7-.5-6.1,2.6-1.4,7-1,9.8,1l7.2,5,.5-.3-7.2-5a12.08,12.08,0,0,0-9.2-1.7c.1,0,.1.1.2.1l-.5.3c-.1-.1-.2-.1-.4-.2a3.555,3.555,0,0,0-.9.4"/>
          <path id="路径_34" data-name="路径 34" class="cls-19" d="M1442.2,396.5l-.5.3c.5.4.5.9,0,1.2a2.126,2.126,0,0,1-1.9-.1l-.5.3a2.772,2.772,0,0,0,2.9.2c.8-.5.8-1.3,0-1.9"/>
          <path id="路径_35" data-name="路径 35" class="cls-19" d="M1426.1,387.2a.989.989,0,0,0-.2,1.7c.1,0,.1.1.2.1l.5-.3-.3-.3a.61.61,0,0,1,.3-.9,2.515,2.515,0,0,1,1.5-.1.758.758,0,0,1,.4.2l.5-.3c-.1,0-.1-.1-.2-.1a2.867,2.867,0,0,0-2.7,0"/>
          <path id="路径_36" data-name="路径 36" class="cls-19" d="M1446.7,393.1l-1.5.8-.6.3-9.3,5.2-.6.2-1.5.9.5.3,13.5-7.3-.5-.4"/>
          <path id="路径_37" data-name="路径 37" class="cls-19" d="M1431,390.1l1.6,3.8,1.4-.8,2.6,1.8-1.6-3.7-1.4.7-2.6-1.8"/>
        </g>
      </g>
    </g>
    <g id="组_95" data-name="组 95">
      <g id="组_61" data-name="组 61">
        <g id="组_56" data-name="组 56">
          <g id="组_53" data-name="组 53">
            <path id="路径_38" data-name="路径 38" class="cls-1" d="M1551.5,396.9v24L1519,440.5V415.9Z"/>
          </g>
          <g id="组_54" data-name="组 54">
            <path id="路径_39" data-name="路径 39" class="cls-2" d="M1519,440.5l-32.5-19V397.6l32.5,18.3Z"/>
          </g>
          <g id="组_55" data-name="组 55">
            <path id="路径_40" data-name="路径 40" class="cls-3" d="M1519,415.9l-32.5-18.3,32.4-19.4,32.6,18.7Z"/>
          </g>
        </g>
        <g id="组_60" data-name="组 60">
          <g id="组_57" data-name="组 57">
            <path id="路径_41" data-name="路径 41" class="cls-20" d="M1551.5,382.5v14.6L1519,416.6V401.3Z"/>
          </g>
          <g id="组_58" data-name="组 58">
            <path id="路径_42" data-name="路径 42" class="cls-21" d="M1519,416.6l-32.4-18.9V383.1l32.4,18.2Z"/>
          </g>
          <g id="组_59" data-name="组 59">
            <path id="路径_43" data-name="路径 43" class="cls-22" d="M1519,401.3l-32.4-18.2,32.3-19.4,32.6,18.8Z"/>
          </g>
        </g>
      </g>
      <g id="组_94" data-name="组 94">
        <g id="组_65" data-name="组 65">
          <g id="组_62" data-name="组 62">
            <path id="路径_44" data-name="路径 44" class="cls-20" d="M1505.3,366.5v16.2l-4.9,2.9V369.3Z"/>
          </g>
          <g id="组_63" data-name="组 63">
            <path id="路径_45" data-name="路径 45" class="cls-23" d="M1500.4,385.6l-4.8-2.8V366.6l4.8,2.7Z"/>
          </g>
          <g id="组_64" data-name="组 64">
            <path id="路径_46" data-name="路径 46" class="cls-24" d="M1500.4,369.3l-4.8-2.7,4.8-2.9,4.9,2.8Z"/>
          </g>
        </g>
        <g id="组_69" data-name="组 69">
          <g id="组_66" data-name="组 66">
            <path id="路径_47" data-name="路径 47" class="cls-20" d="M1514.4,361.2v16.1l-4.8,2.9V364Z"/>
          </g>
          <g id="组_67" data-name="组 67">
            <path id="路径_48" data-name="路径 48" class="cls-23" d="M1509.6,380.2l-4.8-2.8V361.3l4.8,2.7Z"/>
          </g>
          <g id="组_68" data-name="组 68">
            <path id="路径_49" data-name="路径 49" class="cls-24" d="M1509.6,364l-4.8-2.7,4.8-2.9,4.8,2.8Z"/>
          </g>
        </g>
        <g id="组_73" data-name="组 73">
          <g id="组_70" data-name="组 70">
            <path id="路径_50" data-name="路径 50" class="cls-20" d="M1524,355.9v31.4l-4.8,2.9V358.7Z"/>
          </g>
          <g id="组_71" data-name="组 71">
            <path id="路径_51" data-name="路径 51" class="cls-23" d="M1519.2,390.2l-4.8-2.8V356l4.8,2.7Z"/>
          </g>
          <g id="组_72" data-name="组 72">
            <path id="路径_52" data-name="路径 52" class="cls-24" d="M1519.2,358.7l-4.8-2.7,4.8-2.9,4.8,2.8Z"/>
          </g>
        </g>
        <g id="组_77" data-name="组 77">
          <g id="组_74" data-name="组 74">
            <path id="路径_53" data-name="路径 53" class="cls-20" d="M1542.6,361.2v21.5l-4.8,2.9V364Z"/>
          </g>
          <g id="组_75" data-name="组 75">
            <path id="路径_54" data-name="路径 54" class="cls-23" d="M1537.8,385.6l-4.8-2.8V361.3l4.8,2.7Z"/>
          </g>
          <g id="组_76" data-name="组 76">
            <path id="路径_55" data-name="路径 55" class="cls-24" d="M1537.8,364l-4.8-2.7,4.8-2.9,4.8,2.8Z"/>
          </g>
        </g>
        <g id="组_81" data-name="组 81">
          <g id="组_78" data-name="组 78">
            <path id="路径_56" data-name="路径 56" class="cls-20" d="M1524,385.9v7.7l-4.8,2.9v-7.8Z"/>
          </g>
          <g id="组_79" data-name="组 79">
            <path id="路径_57" data-name="路径 57" class="cls-23" d="M1519.2,396.5l-4.8-2.8V386l4.8,2.7Z"/>
          </g>
          <g id="组_80" data-name="组 80">
            <path id="路径_58" data-name="路径 58" class="cls-24" d="M1519.2,388.7l-4.8-2.7,4.8-2.9,4.8,2.8Z"/>
          </g>
        </g>
        <g id="组_85" data-name="组 85">
          <g id="组_82" data-name="组 82">
            <path id="路径_59" data-name="路径 59" class="cls-20" d="M1533.7,366.5v15.2l-4.8,2.9V369.3Z"/>
          </g>
          <g id="组_83" data-name="组 83">
            <path id="路径_60" data-name="路径 60" class="cls-23" d="M1528.9,384.6l-4.9-2.8V366.6l4.9,2.7Z"/>
          </g>
          <g id="组_84" data-name="组 84">
            <path id="路径_61" data-name="路径 61" class="cls-24" d="M1528.9,369.3l-4.9-2.7,4.8-2.9,4.9,2.8Z"/>
          </g>
        </g>
        <g id="组_89" data-name="组 89">
          <g id="组_86" data-name="组 86">
            <path id="路径_62" data-name="路径 62" class="cls-20" d="M1533.7,378.9v9.3l-4.8,2.9v-9.4Z"/>
          </g>
          <g id="组_87" data-name="组 87">
            <path id="路径_63" data-name="路径 63" class="cls-23" d="M1528.9,391.1l-4.9-2.8V379l4.9,2.7Z"/>
          </g>
          <g id="组_88" data-name="组 88">
            <path id="路径_64" data-name="路径 64" class="cls-24" d="M1528.9,381.7,1524,379l4.8-2.9,4.9,2.8Z"/>
          </g>
        </g>
        <g id="组_93" data-name="组 93">
          <g id="组_90" data-name="组 90">
            <path id="路径_65" data-name="路径 65" class="cls-20" d="M1514.4,372.1v16.1l-4.8,2.9V374.9Z"/>
          </g>
          <g id="组_91" data-name="组 91">
            <path id="路径_66" data-name="路径 66" class="cls-23" d="M1509.6,391.1l-4.8-2.8V372.2l4.8,2.7Z"/>
          </g>
          <g id="组_92" data-name="组 92">
            <path id="路径_67" data-name="路径 67" class="cls-24" d="M1509.6,374.9l-4.8-2.7,4.8-2.9,4.8,2.8Z"/>
          </g>
        </g>
      </g>
    </g>
    <g id="组_103" data-name="组 103">
      <g id="组_99" data-name="组 99">
        <g id="组_96" data-name="组 96">
          <path id="路径_68" data-name="路径 68" class="cls-13" d="M1573.2,434.6v24.3l-54,32.5V466Z"/>
        </g>
        <g id="组_97" data-name="组 97">
          <path id="路径_69" data-name="路径 69" class="cls-15" d="M1519.2,491.4l-54-31.4V435.6l54,30.4Z"/>
        </g>
        <g id="组_98" data-name="组 98">
          <path id="路径_70" data-name="路径 70" class="cls-6" d="M1519.2,466l-54-30.4,53.8-32.2,54.2,31.2Z"/>
        </g>
      </g>
      <g id="组_102" data-name="组 102">
        <g id="组_101" data-name="组 101">
          <g id="组_100" data-name="组 100" class="cls-25">
            <path id="路径_71" data-name="路径 71" class="cls-8" d="M1480.2,459.3c-1.4.4-3.3-.8-4.3-2.8-.9-2-.6-3.9.9-4.3,1.4-.4,3.3.8,4.3,2.8.9,2,.6,3.9-.9,4.3m-4.3-9.1c-2.2.7-2.8,3.7-1.3,6.8s4.4,5,6.6,4.4c2.2-.7,2.8-3.7,1.3-6.8-1.4-3.1-4.4-5.1-6.6-4.4"/>
          </g>
        </g>
      </g>
    </g>
    <g id="组_104" data-name="组 104">
      <path id="路径_73" data-name="路径 73" class="cls-19" d="M1473.4,458.2a11.283,11.283,0,0,1-3.8-.8c-.2-.1-17.1-10.1-20.8-12.2q-2.1-1.2-2.1-2.7a3.422,3.422,0,0,1,1.4-2.4c.1-.1,7.3-4.2,11.3-6.7.7-.4,1.6-1.1,1.5-1.9,0-.8-1.1-1.6-1.5-1.8l-10.2-5.8.6-1,10.2,5.8a3.888,3.888,0,0,1,2.1,2.8c0,1-.7,2-2.1,2.9-4,2.5-11.2,6.6-11.3,6.7-.2.2-.9.7-.9,1.4s.9,1.3,1.5,1.7c3.7,2.1,20.6,12.1,20.7,12.2h0s3.4,1.6,5.7,0c2.2-1.5,2.4-1.6,2.8-1.1a.691.691,0,0,1-.2.9l-.2-.3.1.3s-.3.2-1.9,1.2A4.52,4.52,0,0,1,1473.4,458.2Zm4.4-3a.581.581,0,0,0,0,.7l.4-.3Z"/>
    </g>
    <g id="组_116" data-name="组 116">
      <g id="组_108" data-name="组 108">
        <g id="组_105" data-name="组 105">
          <path id="路径_74" data-name="路径 74" class="cls-1" d="M1576.8,518.9V532L1559,542.7V529.2Z"/>
        </g>
        <g id="组_106" data-name="组 106">
          <path id="路径_75" data-name="路径 75" class="cls-2" d="M1559,542.7l-17.8-10.4V519.2l17.8,10Z"/>
        </g>
        <g id="组_107" data-name="组 107">
          <path id="路径_76" data-name="路径 76" class="cls-3" d="M1559,529.2l-17.8-10,17.8-10.6,17.8,10.3Z"/>
        </g>
      </g>
      <g id="组_112" data-name="组 112">
        <g id="组_109" data-name="组 109">
          <path id="路径_77" data-name="路径 77" class="cls-20" d="M1576.8,510.9V519L1559,529.6v-8.3Z"/>
        </g>
        <g id="组_110" data-name="组 110">
          <path id="路径_78" data-name="路径 78" class="cls-21" d="M1559,529.6l-17.7-10.3v-8l17.7,10Z"/>
        </g>
        <g id="组_111" data-name="组 111">
          <path id="路径_79" data-name="路径 79" class="cls-22" d="M1559,521.3l-17.7-10,17.7-10.6,17.8,10.2Z"/>
        </g>
      </g>
      <g id="组_115" data-name="组 115">
        <g id="组_114" data-name="组 114">
          <g id="组_113" data-name="组 113" class="cls-26">
            <path id="路径_80" data-name="路径 80" class="cls-8" d="M1549.9,532.2a2.429,2.429,0,0,1-2.4-1.6c-.5-1.1-.3-2.2.5-2.5a2.429,2.429,0,0,1,2.4,1.6c.5,1.1.3,2.2-.5,2.5m-2.5-5.3c-1.3.4-1.6,2.1-.8,3.8s2.5,2.9,3.8,2.5c1.2-.4,1.6-2.1.8-3.8s-2.5-2.8-3.8-2.5"/>
          </g>
        </g>
      </g>
    </g>
    <g id="组_117" data-name="组 117">
      <path id="路径_82" data-name="路径 82" class="cls-19" d="M1559.8,488.3l-6.7-4.2.8-1.3,5.9,3.7c1.6-1,7.4-4.8,13.1-7.8l.7,1.3c-6.5,3.5-13.3,8-13.4,8Z"/>
    </g>
    <g id="组_118" data-name="组 118">
      <path id="路径_83" data-name="路径 83" class="cls-23" d="M1515.9,548.8a5.1,5.1,0,0,1-3.4-1.3c-1.1-.7-19.7-11.4-22.1-12.9a2.61,2.61,0,0,1-1.4-2c0-1.2,1.3-1.9,1.4-2l16.9-10.7.6,1L1491,531.6a2.229,2.229,0,0,0-.9,1c0,.3.3.6.8,1,2.5,1.5,22,12.8,22.2,12.9l.1.1a4.022,4.022,0,0,0,4.7.4c2.9-1.7,30.4-17.6,30.7-17.7l.6,1c-.3.2-27.8,16-30.6,17.7A5.15,5.15,0,0,1,1515.9,548.8Z"/>
    </g>
    <g id="组_119" data-name="组 119">
      <rect id="矩形_3" data-name="矩形 3" class="cls-5" width="35.4" height="1.2" transform="translate(1572.469 405.832) rotate(-33.957)"/>
    </g>
    <g id="组_122" data-name="组 122">
      <g id="组_120" data-name="组 120">
        <path id="路径_84" data-name="路径 84" class="cls-4" d="M1519,459.4l-38.9-21.9,38.8-23.2"/>
      </g>
      <g id="组_121" data-name="组 121">
        <path id="路径_85" data-name="路径 85" class="cls-5" d="M1519,459.4l39-21.9-39.1-23.2"/>
      </g>
    </g>
    <g id="组_125" data-name="组 125">
      <g id="组_123" data-name="组 123">
        <path id="路径_86" data-name="路径 86" class="cls-20" d="M1519.2,459.6l-17.3-9.8,17.2-10.3"/>
      </g>
      <g id="组_124" data-name="组 124">
        <path id="路径_87" data-name="路径 87" class="cls-23" d="M1519.2,459.6l17.3-9.8-17.4-10.3"/>
      </g>
    </g>
    <g id="组_129" data-name="组 129">
      <g id="组_126" data-name="组 126">
        <path id="路径_88" data-name="路径 88" class="cls-27" d="M1537.7,411.1v21.4l-18.5,11.2V421.9Z"/>
      </g>
      <g id="组_127" data-name="组 127">
        <path id="路径_89" data-name="路径 89" class="cls-28" d="M1519.2,443.7l-18.6-10.8V411.5l18.6,10.4Z"/>
      </g>
      <g id="组_128" data-name="组 128">
        <path id="路径_90" data-name="路径 90" class="cls-17" d="M1519.2,421.9l-18.6-10.4,18.5-11.1,18.6,10.7Z"/>
      </g>
    </g>
    <g id="组_141" data-name="组 141">
      <g id="组_133" data-name="组 133">
        <g id="组_130" data-name="组 130">
          <path id="路径_91" data-name="路径 91" class="cls-1" d="M1612.5,433.7v26l-35.1,21.1V454.2Z"/>
        </g>
        <g id="组_131" data-name="组 131">
          <path id="路径_92" data-name="路径 92" class="cls-2" d="M1577.4,480.8l-35.2-20.5V434.4l35.2,19.8Z"/>
        </g>
        <g id="组_132" data-name="组 132">
          <path id="路径_93" data-name="路径 93" class="cls-3" d="M1577.4,454.2l-35.2-19.8,35.1-21,35.2,20.3Z"/>
        </g>
      </g>
      <g id="组_137" data-name="组 137">
        <g id="组_134" data-name="组 134">
          <path id="路径_94" data-name="路径 94" class="cls-27" d="M1612.5,418v15.9L1577.4,455V438.5Z"/>
        </g>
        <g id="组_135" data-name="组 135">
          <path id="路径_95" data-name="路径 95" class="cls-28" d="M1577.4,455l-35.1-20.4V418.7l35.1,19.8Z"/>
        </g>
        <g id="组_136" data-name="组 136">
          <path id="路径_96" data-name="路径 96" class="cls-17" d="M1577.4,438.5l-35.1-19.8,35-20.9,35.2,20.2Z"/>
        </g>
      </g>
      <g id="组_140" data-name="组 140">
        <g id="组_139" data-name="组 139">
          <g id="组_138" data-name="组 138" class="cls-29">
            <path id="路径_97" data-name="路径 97" class="cls-8" d="M1595.7,459c-1.4-.5-1.7-2.6-.7-4.8,1.1-2.2,3.1-3.6,4.6-3.1s1.7,2.6.7,4.8c-1.1,2.1-3.2,3.5-4.6,3.1m5-10.1c-2.2-.7-5.4,1.5-7.1,4.9s-1.2,6.7,1,7.4,5.4-1.5,7.1-4.9,1.2-6.7-1-7.4"/>
          </g>
        </g>
      </g>
    </g>
    <g id="组_142" data-name="组 142">
      <path id="路径_99" data-name="路径 99" class="cls-19" d="M1618.8,489.1a5.211,5.211,0,0,1-2.5-.8c-1.1-.7-4-2.2-7.4-4.1-6.3-3.5-14.9-8.2-18.8-10.5l.7-1.3c3.9,2.3,12.5,7,18.8,10.5,3.5,1.9,6.3,3.5,7.5,4.1a3.047,3.047,0,0,0,2.4.5,2.248,2.248,0,0,0,1-1.8V473.4a5.756,5.756,0,0,0-3.1-4.9l-20.6-12.1.8-1.3,20.6,12.1a7.09,7.09,0,0,1,3.9,6.2v12.4a4.068,4.068,0,0,1-1.8,3A4.939,4.939,0,0,1,1618.8,489.1Z"/>
    </g>
    <g id="组_144" data-name="组 144">
      <g id="组_143" data-name="组 143">
        <path id="路径_100" data-name="路径 100" class="cls-19" d="M1577.4,431.4l-22.8-13.1,22.8-13.1,22.8,13.1Zm-20.8-13.1,20.8,11.9,20.8-11.9-20.8-11.9Z"/>
      </g>
      <path id="路径_101" data-name="路径 101" class="cls-19" d="M1579.8,413.5l-10.7,6.3-2.5-1.6,10.6-6.3Z"/>
      <path id="路径_102" data-name="路径 102" class="cls-19" d="M1586,419.1l-9.1,5.4-2.4-1.6,9-5.4Z"/>
      <path id="路径_103" data-name="路径 103" class="cls-19" d="M1578.7,418.8,1573,422l-2.5-1.6,5.6-3.3Z"/>
      <path id="路径_104" data-name="路径 104" class="cls-19" d="M1558,418.4l-2.4,1.4-2.5-1.6,2.4-1.4Z"/>
      <path id="路径_105" data-name="路径 105" class="cls-19" d="M1579.8,406l-2.4,1.3-2.5-1.6,2.3-1.4Z"/>
      <path id="路径_106" data-name="路径 106" class="cls-19" d="M1579.8,430.9l-2.4,1.4-2.5-1.6,2.3-1.4Z"/>
      <path id="路径_107" data-name="路径 107" class="cls-19" d="M1601.6,418.4l-2.4,1.4-2.5-1.6,2.3-1.4Z"/>
    </g>
  </g>
</svg>
