<svg xmlns="http://www.w3.org/2000/svg" viewBox="0 0 208.6 174.1">
  <defs>
    <style>
      .cls-1 {
        fill: #c5b097;
      }

      .cls-2 {
        fill: #dcd0c1;
      }

      .cls-3 {
        fill: #f3efeb;
      }

      .cls-4 {
        fill: #896f51;
      }

      .cls-5 {
        fill: #a08363;
      }

      .cls-6 {
        fill: #574129;
      }

      .cls-7 {
        fill: #fff;
      }

      .cls-8 {
        fill: #b06003;
      }

      .cls-9 {
        fill: #834601;
      }

      .cls-10 {
        fill: #e2c5a4;
      }

      .cls-11 {
        fill: #d2a572;
      }

      .cls-12 {
        fill: #8e4c00;
      }

      .cls-13 {
        fill: #673700;
      }

      .cls-14 {
        fill: #dbba94;
      }

      .cls-15 {
        fill: #c8975e;
      }

      .cls-16 {
        fill: #e6a051;
      }

      .cls-17 {
        fill: #d8903f;
      }

      .cls-18 {
        fill: #cb8330;
      }

      .cls-19 {
        fill: #fadcba;
      }

      .cls-20 {
        fill: #f4c897;
      }
    </style>
  </defs>
  <g id="组_313" data-name="组 313" transform="translate(-2198.8 -365)">
    <g id="组_293" data-name="组 293">
      <g id="组_290" data-name="组 290">
        <path id="路径_265" data-name="路径 265" class="cls-1" d="M2354.3,423l-.8,74.3-93.8-52,.7-74.3Z"/>
      </g>
      <g id="组_291" data-name="组 291">
        <path id="路径_266" data-name="路径 266" class="cls-2" d="M2354.3,423l11.5-6-.7,74.3-11.6,6Z"/>
      </g>
      <g id="组_292" data-name="组 292">
        <path id="路径_267" data-name="路径 267" class="cls-3" d="M2260.4,371l11.6-6,93.8,52-11.5,6Z"/>
      </g>
    </g>
    <g id="组_294" data-name="组 294">
      <path id="路径_268" data-name="路径 268" class="cls-3" d="M2280.5,528.1l-81.7-47,66.4-38.5,82.4,46.7Z"/>
      <path id="路径_269" data-name="路径 269" class="cls-1" d="M2280.5,539.1l-81.7-46.8V481.1l81.7,47Z"/>
      <path id="路径_270" data-name="路径 270" class="cls-2" d="M2347.6,500.5l-67.1,38.6v-11l67.1-38.8Z"/>
    </g>
    <g id="组_301" data-name="组 301">
      <g id="组_295" data-name="组 295">
        <path id="路径_271" data-name="路径 271" class="cls-2" d="M2261.7,403.6l11.6-5.7-.7,44.8-11.7,5.7Z"/>
      </g>
      <g id="组_296" data-name="组 296">
        <path id="路径_272" data-name="路径 272" class="cls-3" d="M2260.9,448.4l11.7-5.7,66.7,38.5-11.6,5.7Z"/>
      </g>
      <g id="组_297" data-name="组 297">
        <path id="路径_273" data-name="路径 273" class="cls-1" d="M2257.2,388l76.2,44-1,61.6-76.2-44Zm71.3,98.5V441.4l-66.8-37.8-.7,44.8,67.5,38.1"/>
      </g>
      <g id="组_298" data-name="组 298">
        <path id="路径_274" data-name="路径 274" class="cls-3" d="M2257.2,388l11.6-5.7,76.2,43.9-11.7,5.7Z"/>
      </g>
      <g id="组_299" data-name="组 299">
        <path id="路径_275" data-name="路径 275" class="cls-2" d="M2333.3,431.9l11.7-5.7-1,61.6-11.7,5.7Z"/>
      </g>
      <g id="组_300" data-name="组 300">
        <path id="路径_276" data-name="路径 276" class="cls-4" d="M2336.2,435.4l3.6-2.6-.2,53-3.9,2.9Z"/>
      </g>
    </g>
    <g id="组_302" data-name="组 302">
      <path id="路径_277" data-name="路径 277" class="cls-5" d="M2290.9,507.7,2228.2,472l33.4-19.4,62.5,35.5Z"/>
      <path id="路径_278" data-name="路径 278" class="cls-6" d="M2290.9,513.2l-62.7-35.5V472l62.7,35.7Z"/>
      <path id="路径_279" data-name="路径 279" class="cls-4" d="M2324.2,493.2l-33.3,20v-5.5l33.2-19.6Z"/>
    </g>
    <path id="路径_280" data-name="路径 280" class="cls-7" d="M2328.5,481.8l-61.9-36.1V406.4l61.9,35Z"/>
    <g id="组_304" data-name="组 304">
      <path id="路径_281" data-name="路径 281" class="cls-8" d="M2402.6,460.2l-28.5-16.1V388.9l28.5,16.4Z"/>
      <path id="路径_282" data-name="路径 282" class="cls-9" d="M2402.6,425.9l-28.5-16.1V388.9l28.5,16.4Z"/>
      <g id="组_303" data-name="组 303">
        <path id="路径_283" data-name="路径 283" class="cls-9" d="M2400.9,431l-25.4-14.2v-2.1l25.4,14.6Z"/>
        <path id="路径_284" data-name="路径 284" class="cls-9" d="M2400.9,434.7l-25.4-14.3v-2l25.4,14.6Z"/>
        <path id="路径_285" data-name="路径 285" class="cls-9" d="M2400.9,438.2l-25.4-14.3v-2l25.4,14.5Z"/>
        <path id="路径_286" data-name="路径 286" class="cls-9" d="M2400.9,441.6l-25.4-14.2v-2.1l25.4,14.6Z"/>
        <path id="路径_287" data-name="路径 287" class="cls-9" d="M2394.4,441.3l-18.9-10.5v-2l18.9,10.7Z"/>
        <path id="路径_288" data-name="路径 288" class="cls-9" d="M2388,441l-12.5-6.7v-2.1l12.5,7Z"/>
      </g>
      <path id="路径_289" data-name="路径 289" class="cls-10" d="M2407.4,402.2l-4.8,3.1-28.5-16.4,4.5-3.2Z"/>
      <path id="路径_290" data-name="路径 290" class="cls-11" d="M2407.4,458l-4.8,2.2V405.3l4.8-3.1Z"/>
    </g>
    <g id="组_305" data-name="组 305">
      <path id="路径_291" data-name="路径 291" class="cls-12" d="M2383.6,498.8l-28.5-16.1V427.4l28.5,16.5Z"/>
      <path id="路径_292" data-name="路径 292" class="cls-13" d="M2383.6,464.4l-28.5-16.1V427.4l28.5,16.5Z"/>
      <path id="路径_293" data-name="路径 293" class="cls-14" d="M2388.4,440.8l-4.8,3.1-28.5-16.5,4.5-3.2Z"/>
      <path id="路径_294" data-name="路径 294" class="cls-15" d="M2388.4,496.5l-4.8,2.3V443.9l4.8-3.1Z"/>
    </g>
    <g id="组_306" data-name="组 306">
      <path id="路径_295" data-name="路径 295" class="cls-16" d="M2367.8,505.5l-28.5-16.1V434.1l28.5,16.4Z"/>
      <path id="路径_296" data-name="路径 296" class="cls-17" d="M2367.8,471.1,2339.3,455V434.1l28.5,16.4Z"/>
      <path id="路径_297" data-name="路径 297" class="cls-18" d="M2348.3,453.3l-5.4-3v-4l5.4,3.1Z"/>
      <path id="路径_298" data-name="路径 298" class="cls-18" d="M2360.6,459.6l-9.3-5.5v-4l9.3,5.6Z"/>
      <path id="路径_299" data-name="路径 299" class="cls-19" d="M2372.6,447.4l-4.8,3.1-28.5-16.4,4.5-3.2Z"/>
      <path id="路径_300" data-name="路径 300" class="cls-20" d="M2372.6,503.2l-4.8,2.3v-55l4.8-3.1Z"/>
    </g>
    <g id="组_309" data-name="组 309">
      <g id="组_308" data-name="组 308">
        <g id="组_307" data-name="组 307">
          <path id="路径_301" data-name="路径 301" class="cls-20" d="M2346.9,487.2a4.116,4.116,0,0,1,1.8-2.1,1.165,1.165,0,0,1,.7-.2c-1,1.6-1.9,2.4-2.5,2.3m13.3.8a8.244,8.244,0,0,1-2.2-2.1c.1-.1.2,0,.3,0h.1c1.7.8,2,1.5,2.1,1.7l.1.2c0,.2-.1.2-.1.2h-.3m-8.5-4.2a6.367,6.367,0,0,0,.6-1c.7-1.3,1.2-3.1,1.7-4.2a18.408,18.408,0,0,0,1.4,5.2,9.043,9.043,0,0,0,.5.9,17.558,17.558,0,0,0-4-.8l-.2-.1m2.7-8.5a8.137,8.137,0,0,1,.4-3.6l.1-.2.2.2a3.509,3.509,0,0,1-.1,2l-.1.3a8.99,8.99,0,0,0-.5,1.3h0m.8-5-.3-.1c-.5-.2-.9.2-1.1.8a12.1,12.1,0,0,0-.4,5.7h0a42.866,42.866,0,0,1-2,4.6,14.345,14.345,0,0,1-1.4,2.2c-.5.1-1.1.2-1.4.3a4.324,4.324,0,0,0-2.8,2.4,2.766,2.766,0,0,0-.1.9v.2l.1.3a2.362,2.362,0,0,0,.9.8h.1c1,.5,2.3-.5,4.2-3.2h.2a33.164,33.164,0,0,1,5.8,1.5,8.827,8.827,0,0,0,2.9,2.7q.75.45,1.2,0a1.347,1.347,0,0,0,.5-.9,1.7,1.7,0,0,0,0-1c-.3-1-1.1-1.8-2.7-2.5-.5-.2-1-.4-1.6-.6a11.893,11.893,0,0,1-.9-1.5,18.036,18.036,0,0,1-1.5-5.6l.1-.2c.7-2,1.4-4.7.8-6.2a1.726,1.726,0,0,0-.6-.6"/>
        </g>
      </g>
    </g>
    <g id="组_312" data-name="组 312">
      <g id="组_311" data-name="组 311">
        <g id="组_310" data-name="组 310">
          <path id="路径_302" data-name="路径 302" class="cls-16" d="M2279.9,419.2l-.3-.1-.3,30.1,36.7,20.3v-.3L2279.6,449l.3-29.8"/>
          <path id="路径_303" data-name="路径 303" class="cls-16" d="M2286.3,436l-3-1.6-.1,16.1,2.9,1.6.2-16.1"/>
          <path id="路径_304" data-name="路径 304" class="cls-16" d="M2292.4,448.4l-3-1.6v7.1l2.9,1.6.1-7.1"/>
          <path id="路径_305" data-name="路径 305" class="cls-16" d="M2298.8,431.7l-3-1.6-.2,27.2,2.9,1.7.3-27.3"/>
          <path id="路径_306" data-name="路径 306" class="cls-16" d="M2305,439.9l-3-1.7-.2,22.6,2.9,1.6.3-22.5"/>
          <path id="路径_307" data-name="路径 307" class="cls-16" d="M2311.1,452.7l-3-1.7-.1,13.2,3,1.7.1-13.2"/>
        </g>
      </g>
    </g>
  </g>
</svg>
