<svg xmlns="http://www.w3.org/2000/svg" viewBox="0 0 114.105 119.153">
  <defs>
    <style>
      .cls-1 {
        fill: #ecc28f;
      }

      .cls-2 {
        fill: #e6b06e;
      }

      .cls-3 {
        fill: #e29d4d;
      }

      .cls-4, .cls-5 {
        fill: none;
        stroke-miterlimit: 10;
      }

      .cls-4 {
        stroke: #e29d4d;
        stroke-width: 1.604px;
      }

      .cls-5 {
        stroke: #fff;
        stroke-width: 2.103px;
      }

      .cls-6 {
        fill: #fff;
      }
    </style>
  </defs>
  <g id="组_289" data-name="组 289" transform="translate(-2003.646 -232.147)">
    <path id="路径_246" data-name="路径 246" class="cls-1" d="M2071.3,312.5l30.7,15.1a54.974,54.974,0,0,0,12-20.1l-34.6-40.8Z"/>
    <path id="路径_247" data-name="路径 247" class="cls-2" d="M2084.5,238.2a56.735,56.735,0,0,0-23.6-5.2,58.4,58.4,0,0,0-9.3.8l27.8,32.8Z"/>
    <path id="路径_248" data-name="路径 248" class="cls-3" d="M2114,307.4a56.229,56.229,0,0,0-29.5-69.2l-5.1,28.4Z"/>
    <path id="路径_249" data-name="路径 249" class="cls-2" d="M2101.9,327.5l-30.6-15-5.8,32.7A56.389,56.389,0,0,0,2101.9,327.5Z"/>
    <path id="路径_250" data-name="路径 250" class="cls-1" d="M2005.5,280.1a56.3,56.3,0,0,0,46.3,64.6h.3l8.8.7a34.644,34.644,0,0,0,4.6-.2l5.9-32.7Z"/>
    <path id="路径_251" data-name="路径 251" class="cls-2" d="M2079.4,266.6l-27.8-32.8a56.183,56.183,0,0,0-46.1,46.3l65.8,32.4Z"/>
    <path id="路径_252" data-name="路径 252" class="cls-4" d="M2052,344.7a56.024,56.024,0,1,1,8.8.7"/>
    <path id="路径_253" data-name="路径 253" class="cls-5" d="M2096.1,268.4a40.644,40.644,0,1,1-5.3-7.2"/>
    <path id="路径_254" data-name="路径 254" class="cls-5" d="M2034.9,281.1a27.249,27.249,0,1,1-1.2,8"/>
    <g id="组_285" data-name="组 285">
      <path id="路径_255" data-name="路径 255" class="cls-3" d="M2060.3,296.7l-3.7,3.7.1-5.3-5,1.4,2.7-4.5-5.1-1.4,4.6-2.5-3.6-3.7h5.2l-1.3-5,4.4,2.7,1.4-5,2.5,4.5,3.7-3.6v5.2l5-1.3-2.7,4.4,5,1.4-4.5,2.6,3.6,3.7-5.2-.1,1.3,5-4.4-2.7-1.4,5.1Z"/>
      <path id="路径_256" data-name="路径 256" class="cls-6" d="M2060.1,277.6l2.4,4.4,3.5-3.5-.1,5,4.8-1.3-2.6,4.3,4.8,1.3-4.4,2.4,3.5,3.5-5-.1,1.3,4.8-4.3-2.6-1.3,4.8-2.4-4.3-3.5,3.5.1-5-4.8,1.3,2.6-4.3-4.8-1.3,4.3-2.4-3.5-3.5,5,.1-1.3-4.8,4.3,2.6,1.4-4.9m-.2-1.1-.3,1-1.2,4.3-3.8-2.3-.9-.5.3,1,1.1,4.3-4.4-.1h-1l.7.7,3.1,3.2-3.9,2.1-.9.5,1,.3,4.3,1.2-2.3,3.8-.5.9,1-.3,4.3-1.1-.1,4.4v1l.7-.7,3.2-3.1,2.2,3.9.5.9.3-1,1.2-4.3,3.8,2.3.9.5-.3-1-1.1-4.3,4.4.1h1l-.7-.7-3.1-3.2,3.9-2.1.9-.5-1-.3-4.3-1.2,2.3-3.8.5-.9-1,.3-4.3,1.1.1-4.4v-1l-.7.7-3.2,3.1-2.1-3.9-.6-.9Z"/>
    </g>
    <path id="路径_257" data-name="路径 257" class="cls-6" d="M2060.3,279.7l2,3.6,2.9-2.9v4.1l4-1L2067,287l3.9,1.1-3.6,2,2.9,2.9h-4.1l1,4-3.5-2.1-1.1,3.9-2-3.6-2.9,2.9V294l-3.9.9,2.1-3.5-3.9-1,3.6-2-2.9-2.9h4.1l-1-4,3.5,2.2,1.1-4m-.5-4.1-1,3.7-.5,2-1.7-1.1-3.2-2,1,3.7.5,2h-5.8l2.7,2.7,1.4,1.5-1.8,1-3.4,1.7,3.7,1,2,.5-1.1,1.7-2,3.2,3.7-1,2-.5v5.8l2.7-2.7,1.5-1.4,1,1.8,1.8,3.3,1-3.7.5-2,1.7,1.1,3.2,2-1-3.7-.5-2h5.8l-2.8-2.6-1.4-1.5,1.8-1,3.3-1.8-3.7-1-2-.5,1.1-1.7,2-3.2-3.7,1-2,.5v-5.8l-2.7,2.7-1.5,1.4-.9-1.8Z"/>
    <g id="组_286" data-name="组 286">
      <circle id="椭圆_81" data-name="椭圆 81" class="cls-3" cx="5.7" cy="5.7" r="5.7" transform="translate(2088.1 259.2)"/>
      <path id="路径_258" data-name="路径 258" class="cls-6" d="M2093.8,259.8a5.1,5.1,0,1,1-5.1,5.1,5.122,5.122,0,0,1,5.1-5.1m0-1.3a6.4,6.4,0,1,0,6.4,6.4,6.445,6.445,0,0,0-6.4-6.4Z"/>
    </g>
    <path id="路径_259" data-name="路径 259" class="cls-6" d="M2093.8,260.7a4.2,4.2,0,1,1-4.2,4.2h0a4.225,4.225,0,0,1,4.2-4.2m0-1.8a6,6,0,1,0,6,6h0A5.954,5.954,0,0,0,2093.8,258.9Z"/>
    <g id="组_287" data-name="组 287">
      <path id="路径_260" data-name="路径 260" class="cls-3" d="M2034.1,290.6a5.7,5.7,0,0,1-5.7-5.7,5.763,5.763,0,0,1,5.7-5.7,5.7,5.7,0,0,1,5.7,5.7A5.763,5.763,0,0,1,2034.1,290.6Z"/>
      <path id="路径_261" data-name="路径 261" class="cls-6" d="M2034.1,279.8a5.1,5.1,0,1,1-5.1,5.1,5.121,5.121,0,0,1,5.1-5.1m0-1.3a6.4,6.4,0,1,0,6.4,6.4,6.511,6.511,0,0,0-6.4-6.4Z"/>
    </g>
    <path id="路径_262" data-name="路径 262" class="cls-6" d="M2034.1,280.7a4.2,4.2,0,1,1-4.2,4.2h0a4.225,4.225,0,0,1,4.2-4.2m0-1.8a6,6,0,1,0,6,6h0a6.018,6.018,0,0,0-6-6Z"/>
    <g id="组_288" data-name="组 288">
      <circle id="椭圆_82" data-name="椭圆 82" class="cls-3" cx="5.7" cy="5.7" r="5.7" transform="translate(2050.6 339.1)"/>
      <path id="路径_263" data-name="路径 263" class="cls-6" d="M2056.3,339.7a5.1,5.1,0,1,1-5.1,5.1,5.122,5.122,0,0,1,5.1-5.1m0-1.2a6.4,6.4,0,1,0,6.4,6.4,6.38,6.38,0,0,0-6.4-6.4Z"/>
    </g>
    <path id="路径_264" data-name="路径 264" class="cls-6" d="M2056.3,340.6a4.2,4.2,0,1,1-4.2,4.2h0a4.225,4.225,0,0,1,4.2-4.2m0-1.8a6,6,0,1,0,6,6,5.954,5.954,0,0,0-6-6Z"/>
  </g>
</svg>
