<svg xmlns="http://www.w3.org/2000/svg" xmlns:xlink="http://www.w3.org/1999/xlink" viewBox="0 0 221.4 203.4">
  <defs>
    <style>
      .cls-1 {
        fill: url(#linear-gradient);
      }

      .cls-2 {
        fill: #dcd0c1;
      }

      .cls-3 {
        fill: #896f51;
      }

      .cls-4 {
        fill: #f4c897;
      }

      .cls-5 {
        fill: #e6a051;
      }

      .cls-6 {
        fill: #fadcba;
      }

      .cls-7 {
        fill: #c8975e;
      }

      .cls-8 {
        fill: #8e4c00;
      }

      .cls-9 {
        fill: #dbba94;
      }

      .cls-10 {
        fill: #d2a572;
      }

      .cls-11 {
        fill: #b06003;
      }

      .cls-12 {
        fill: #e2c5a4;
      }

      .cls-13 {
        fill: #c5b097;
      }

      .cls-14 {
        fill: #755a3d;
      }

      .cls-15 {
        fill: #f3efeb;
      }

      .cls-16 {
        fill: #ccb091;
      }

      .cls-17 {
        fill: #f3ca9b;
      }

      .cls-18 {
        fill: #f4ca9a;
      }

      .cls-19 {
        fill: #e8ab65;
      }

      .cls-20 {
        fill: #bf8b4e;
      }

      .cls-21 {
        fill: #edf0f5;
      }

      .cls-22 {
        fill: #f0e4d5;
      }

      .cls-23 {
        fill: #faebd9;
      }

      .cls-24 {
        fill: #efe1d1;
      }

      .cls-25 {
        fill: #f1bf86;
      }

      .cls-26 {
        fill: url(#linear-gradient-2);
      }

      .cls-27 {
        fill: url(#linear-gradient-3);
      }

      .cls-28 {
        fill: #fdf5ed;
      }

      .cls-29 {
        fill: #faeedf;
      }

      .cls-30 {
        fill: #f4dbe6;
      }

      .cls-31 {
        fill: #f0c088;
      }

      .cls-32 {
        fill: #71d4f3;
      }

      .cls-33 {
        fill: #f8d7b0;
      }

      .cls-34 {
        fill: #efbd83;
      }

      .cls-35 {
        fill: #f0c391;
      }

      .cls-36 {
        fill: #edb472;
      }

      .cls-37 {
        fill: #eebe87;
      }

      .cls-38 {
        fill: #e7a456;
      }

      .cls-39 {
        fill: #e5bd90;
      }

      .cls-40 {
        fill: #e8aa64;
      }

      .cls-41 {
        fill: #fae0c1;
      }

      .cls-42 {
        fill: url(#linear-gradient-4);
      }

      .cls-43 {
        fill: url(#linear-gradient-5);
      }

      .cls-44 {
        fill: #a8855d;
      }

      .cls-45 {
        fill: #dbb07f;
      }

      .cls-46 {
        fill: #c39d70;
      }
    </style>
    <linearGradient id="linear-gradient" y1="0.5" x2="1" y2="0.5" gradientUnits="objectBoundingBox">
      <stop offset="0" stop-color="#fff" stop-opacity="0"/>
      <stop offset="0.172" stop-color="#f6fcfe" stop-opacity="0.051"/>
      <stop offset="0.454" stop-color="#ddf6fc" stop-opacity="0.137"/>
      <stop offset="0.809" stop-color="#b5ebf9" stop-opacity="0.243"/>
      <stop offset="1" stop-color="#9de4f7" stop-opacity="0.302"/>
    </linearGradient>
    <linearGradient id="linear-gradient-2" x1="-0.015" y1="0.491" x2="0.97" y2="0.491" gradientUnits="objectBoundingBox">
      <stop offset="0" stop-color="#fff" stop-opacity="0.102"/>
      <stop offset="0.031" stop-color="#fff5e6" stop-opacity="0.106"/>
      <stop offset="0.097" stop-color="#ffe1b7" stop-opacity="0.118"/>
      <stop offset="0.169" stop-color="#ffd08b" stop-opacity="0.133"/>
      <stop offset="0.245" stop-color="#ffc066" stop-opacity="0.149"/>
      <stop offset="0.326" stop-color="#ffb446" stop-opacity="0.165"/>
      <stop offset="0.414" stop-color="#ffa92c" stop-opacity="0.184"/>
      <stop offset="0.511" stop-color="#ffa119" stop-opacity="0.204"/>
      <stop offset="0.622" stop-color="#ff9b0b" stop-opacity="0.224"/>
      <stop offset="0.758" stop-color="#ff9802" stop-opacity="0.251"/>
      <stop offset="1" stop-color="#ff9700" stop-opacity="0.302"/>
    </linearGradient>
    <linearGradient id="linear-gradient-3" x1="0.013" y1="0.507" x2="0.988" y2="0.507" xlink:href="#linear-gradient-2"/>
    <linearGradient id="linear-gradient-4" x1="0.501" y1="0.175" x2="0.501" y2="1.007" xlink:href="#linear-gradient-2"/>
    <linearGradient id="linear-gradient-5" x1="0.5" y1="0.534" x2="0.5" y2="0.899" xlink:href="#linear-gradient-2"/>
  </defs>
  <g id="组_274" data-name="组 274" transform="translate(-623.7 -357.5)">
    <path id="路径_129" data-name="路径 129" class="cls-1" d="M768.9,451.8l-24.5,20.7L768,487.7l18.6-25.5Z"/>
    <g id="组_160" data-name="组 160">
      <g id="组_155" data-name="组 155">
        <g id="组_153" data-name="组 153">
          <path id="路径_130" data-name="路径 130" class="cls-2" d="M779.8,546.9v12.7l-2.5,1.3V548.2Z"/>
        </g>
        <g id="组_154" data-name="组 154">
          <path id="路径_131" data-name="路径 131" class="cls-3" d="M777.3,560.9l-2.6-1.5V546.9l2.6,1.3Z"/>
        </g>
      </g>
      <g id="组_159" data-name="组 159">
        <g id="组_156" data-name="组 156">
          <path id="路径_132" data-name="路径 132" class="cls-4" d="M786.5,539.4v5.2l-9.2,5.2.1-5Z"/>
        </g>
        <g id="组_157" data-name="组 157">
          <path id="路径_133" data-name="路径 133" class="cls-5" d="M777.3,549.8l-9.3-5v-5.5l9.4,5.5Z"/>
        </g>
        <g id="组_158" data-name="组 158">
          <path id="路径_134" data-name="路径 134" class="cls-6" d="M777.4,544.8l-9.4-5.5,9.3-5.5,9.2,5.6Z"/>
        </g>
      </g>
    </g>
    <g id="组_173" data-name="组 173">
      <g id="组_163" data-name="组 163">
        <g id="组_161" data-name="组 161">
          <path id="路径_135" data-name="路径 135" class="cls-2" d="M746.3,541.1v14.1l-2.9,1.5V542.5Z"/>
        </g>
        <g id="组_162" data-name="组 162">
          <path id="路径_136" data-name="路径 136" class="cls-3" d="M743.4,556.7l-2.9-1.7V541.1l2.9,1.4Z"/>
        </g>
      </g>
      <g id="组_172" data-name="组 172">
        <g id="组_167" data-name="组 167">
          <g id="组_164" data-name="组 164">
            <path id="路径_137" data-name="路径 137" class="cls-4" d="M753.7,532.7v5.8l-10.3,5.8.1-5.6Z"/>
          </g>
          <g id="组_165" data-name="组 165">
            <path id="路径_138" data-name="路径 138" class="cls-5" d="M743.4,544.3,733,538.7v-6.2l10.5,6.2Z"/>
          </g>
          <g id="组_166" data-name="组 166">
            <path id="路径_139" data-name="路径 139" class="cls-6" d="M743.5,538.7,733,532.5l10.4-6,10.3,6.2Z"/>
          </g>
        </g>
        <g id="组_171" data-name="组 171">
          <g id="组_168" data-name="组 168">
            <path id="路径_140" data-name="路径 140" class="cls-7" d="M753.8,523.8v5.8l-10.3,5.8.1-5.6Z"/>
          </g>
          <g id="组_169" data-name="组 169">
            <path id="路径_141" data-name="路径 141" class="cls-8" d="M743.5,535.4l-10.3-5.6v-6.2l10.4,6.2Z"/>
          </g>
          <g id="组_170" data-name="组 170">
            <path id="路径_142" data-name="路径 142" class="cls-9" d="M743.6,529.8l-10.4-6.2,10.3-6.1,10.3,6.3Z"/>
          </g>
        </g>
      </g>
    </g>
    <g id="组_186" data-name="组 186">
      <g id="组_176" data-name="组 176">
        <g id="组_174" data-name="组 174">
          <path id="路径_143" data-name="路径 143" class="cls-2" d="M750.9,413.4v11.9l-2.4,1.3v-12Z"/>
        </g>
        <g id="组_175" data-name="组 175">
          <path id="路径_144" data-name="路径 144" class="cls-3" d="M748.5,426.6l-2.4-1.5V413.4l2.4,1.2Z"/>
        </g>
      </g>
      <g id="组_185" data-name="组 185">
        <g id="组_180" data-name="组 180">
          <g id="组_177" data-name="组 177">
            <path id="路径_145" data-name="路径 145" class="cls-10" d="M757.2,406.4v4.9l-8.7,4.8.1-4.7Z"/>
          </g>
          <g id="组_178" data-name="组 178">
            <path id="路径_146" data-name="路径 146" class="cls-11" d="M748.5,416.1l-8.7-4.7v-5.2l8.8,5.2Z"/>
          </g>
          <g id="组_179" data-name="组 179">
            <path id="路径_147" data-name="路径 147" class="cls-12" d="M748.6,411.4l-8.8-5.2,8.7-5.1,8.7,5.3Z"/>
          </g>
        </g>
        <g id="组_184" data-name="组 184">
          <g id="组_181" data-name="组 181">
            <path id="路径_148" data-name="路径 148" class="cls-10" d="M757.3,398.9v4.8l-8.7,4.9.1-4.7Z"/>
          </g>
          <g id="组_182" data-name="组 182">
            <path id="路径_149" data-name="路径 149" class="cls-5" d="M748.6,408.6l-8.7-4.7v-5.2l8.8,5.2Z"/>
          </g>
          <g id="组_183" data-name="组 183">
            <path id="路径_150" data-name="路径 150" class="cls-9" d="M748.7,403.9l-8.8-5.2,8.7-5.1,8.7,5.3Z"/>
          </g>
        </g>
      </g>
    </g>
    <g id="组_189" data-name="组 189">
      <g id="组_187" data-name="组 187">
        <path id="路径_151" data-name="路径 151" class="cls-2" d="M669.8,399v14.1l-2.9,1.5V400.4Z"/>
      </g>
      <g id="组_188" data-name="组 188">
        <path id="路径_152" data-name="路径 152" class="cls-11" d="M666.9,414.6l-2.8-1.7V399l2.8,1.4Z"/>
      </g>
    </g>
    <g id="组_194" data-name="组 194">
      <g id="组_193" data-name="组 193">
        <g id="组_190" data-name="组 190">
          <path id="路径_153" data-name="路径 153" class="cls-4" d="M672.6,393.5v6.4l-4.7,2.8v-6.5Z"/>
        </g>
        <g id="组_191" data-name="组 191">
          <path id="路径_154" data-name="路径 154" class="cls-5" d="M667.9,402.7l-5.9-2.4-.1-6.5,6,2.4Z"/>
        </g>
        <g id="组_192" data-name="组 192">
          <path id="路径_155" data-name="路径 155" class="cls-6" d="M667.9,396.2l-6-2.4,4.7-2.8,6,2.5Z"/>
        </g>
      </g>
    </g>
    <g id="组_199" data-name="组 199">
      <g id="组_198" data-name="组 198">
        <g id="组_195" data-name="组 195">
          <path id="路径_156" data-name="路径 156" class="cls-4" d="M672.6,384.4v6.4l-4.7,2.8v-6.4Z"/>
        </g>
        <g id="组_196" data-name="组 196">
          <path id="路径_157" data-name="路径 157" class="cls-5" d="M667.9,393.6l-5.9-2.4-.1-6.5,6,2.5Z"/>
        </g>
        <g id="组_197" data-name="组 197">
          <path id="路径_158" data-name="路径 158" class="cls-6" d="M667.9,387.2l-6-2.5,4.7-2.7,6,2.4Z"/>
        </g>
      </g>
    </g>
    <g id="组_204" data-name="组 204">
      <g id="组_203" data-name="组 203">
        <g id="组_200" data-name="组 200">
          <path id="路径_159" data-name="路径 159" class="cls-4" d="M672.6,375.3v6.4l-4.7,2.8v-6.4Z"/>
        </g>
        <g id="组_201" data-name="组 201">
          <path id="路径_160" data-name="路径 160" class="cls-5" d="M667.9,384.5l-5.9-2.4-.1-6.4,6,2.4Z"/>
        </g>
        <g id="组_202" data-name="组 202">
          <path id="路径_161" data-name="路径 161" class="cls-6" d="M667.9,378.1l-6-2.4,4.7-2.8,6,2.4Z"/>
        </g>
      </g>
    </g>
    <g id="组_273" data-name="组 273">
      <g id="组_241" data-name="组 241">
        <g id="组_224" data-name="组 224">
          <g id="组_205" data-name="组 205">
            <path id="路径_162" data-name="路径 162" class="cls-13" d="M801.2,459.5l-43.8-25.6,43.8-25.3,43.9,25.3Z"/>
          </g>
          <g id="组_222" data-name="组 222">
            <g id="组_206" data-name="组 206">
              <path id="路径_163" data-name="路径 163" class="cls-14" d="M757.3,489.3l.1-55.4,43.8,25.6v55.1Z"/>
            </g>
            <g id="组_218" data-name="组 218">
              <g id="组_207" data-name="组 207">
                <path id="路径_164" data-name="路径 164" class="cls-2" d="M627.2,437.3V442l109.5,63.1s9.7,6.1,22-.5,41.7-24.5,41.7-24.5v-4.9l-49.6,23.4s-19.5-5.7-22.1-6.5-13-7.8-16.6-11.5c-3.7-3.7-18.3-13.4-18.3-13.4s-34.5-23.3-40.5-23.5-20.4-6.1-20.4-6.1Z"/>
                <path id="路径_165" data-name="路径 165" class="cls-15" d="M627.2,437.3,647,425.9l100,57.6,38.2-21.9,21.3,10.2-49,29.1s-10.5,6.2-23.8-1.5Z"/>
              </g>
              <g id="组_212" data-name="组 212">
                <g id="组_208" data-name="组 208">
                  <path id="路径_166" data-name="路径 166" class="cls-15" d="M674.3,505.7l20.1,11.6-8.2,4.4-19.9-11.3Z"/>
                  <path id="路径_167" data-name="路径 167" class="cls-2" d="M666.3,510.4l19.9,11.3v4.6l-19.8-11.4Z"/>
                  <path id="路径_168" data-name="路径 168" class="cls-15" d="M686.2,521.7l8.2-4.4V522l-8.2,4.3Z"/>
                </g>
                <g id="组_209" data-name="组 209">
                  <path id="路径_169" data-name="路径 169" class="cls-15" d="M682.4,496.7l20.2,11.6-8.3,4.4-19.9-11.3Z"/>
                  <path id="路径_170" data-name="路径 170" class="cls-2" d="M674.4,501.4l19.9,11.3v4.6l-19.8-11.4Z"/>
                  <path id="路径_171" data-name="路径 171" class="cls-15" d="M694.3,512.7l8.3-4.4V513l-8.3,4.3Z"/>
                </g>
                <g id="组_210" data-name="组 210">
                  <path id="路径_172" data-name="路径 172" class="cls-15" d="M690.5,487.7l20.2,11.6-8.3,4.4-19.9-11.3Z"/>
                  <path id="路径_173" data-name="路径 173" class="cls-2" d="M682.5,492.4l19.9,11.3v4.6L682.6,497Z"/>
                  <path id="路径_174" data-name="路径 174" class="cls-15" d="M702.4,503.7l8.3-4.4V504l-8.3,4.3Z"/>
                </g>
                <g id="组_211" data-name="组 211">
                  <path id="路径_175" data-name="路径 175" class="cls-15" d="M698.5,478.9l20.2,11.5-8.3,4.4-19.9-11.3Z"/>
                  <path id="路径_176" data-name="路径 176" class="cls-2" d="M690.5,483.5l19.9,11.3v4.6l-19.8-11.3Z"/>
                  <path id="路径_177" data-name="路径 177" class="cls-15" d="M710.4,494.8l8.3-4.4v4.7l-8.3,4.3Z"/>
                </g>
              </g>
              <g id="组_217" data-name="组 217">
                <g id="组_213" data-name="组 213">
                  <path id="路径_178" data-name="路径 178" class="cls-15" d="M631.7,480.9l20.1,11.5-8.2,4.4-19.9-11.3Z"/>
                  <path id="路径_179" data-name="路径 179" class="cls-2" d="M623.7,485.5l19.9,11.3v4.6l-19.8-11.3Z"/>
                  <path id="路径_180" data-name="路径 180" class="cls-15" d="M643.6,496.8l8.2-4.4v4.7l-8.2,4.3Z"/>
                </g>
                <g id="组_214" data-name="组 214">
                  <path id="路径_181" data-name="路径 181" class="cls-15" d="M639.8,471.8,660,483.4l-8.3,4.4-19.9-11.3Z"/>
                  <path id="路径_182" data-name="路径 182" class="cls-2" d="M631.8,476.5l19.9,11.3v4.6l-19.8-11.3Z"/>
                  <path id="路径_183" data-name="路径 183" class="cls-15" d="M651.7,487.8l8.3-4.4v4.7l-8.3,4.3Z"/>
                </g>
                <g id="组_215" data-name="组 215">
                  <path id="路径_184" data-name="路径 184" class="cls-15" d="M647.9,462.9l20.2,11.5-8.3,4.5-19.9-11.4Z"/>
                  <path id="路径_185" data-name="路径 185" class="cls-2" d="M639.9,467.5l19.9,11.4v4.6L640,472.1Z"/>
                  <path id="路径_186" data-name="路径 186" class="cls-15" d="M659.8,478.9l8.3-4.5v4.8l-8.3,4.3Z"/>
                </g>
                <g id="组_216" data-name="组 216">
                  <path id="路径_187" data-name="路径 187" class="cls-15" d="M655.9,454l20.2,11.5-8.3,4.5-19.9-11.3Z"/>
                  <path id="路径_188" data-name="路径 188" class="cls-2" d="M647.9,458.7,667.8,470v4.6L648,463.2Z"/>
                  <path id="路径_189" data-name="路径 189" class="cls-15" d="M667.8,470l8.3-4.5v4.8l-8.3,4.3Z"/>
                </g>
              </g>
            </g>
            <g id="组_219" data-name="组 219">
              <path id="路径_190" data-name="路径 190" class="cls-16" d="M768.9,470.9V451.8l8.1,4.6.1,9.8Z"/>
            </g>
            <g id="组_220" data-name="组 220">
              <path id="路径_191" data-name="路径 191" class="cls-14" d="M786.6,501.7V461.6l14.6,2.3V497Z"/>
            </g>
            <g id="组_221" data-name="组 221">
              <path id="路径_192" data-name="路径 192" class="cls-17" d="M777.1,466.2l-.1-9.8,8.3,5.1Z"/>
            </g>
          </g>
          <g id="组_223" data-name="组 223">
            <path id="路径_193" data-name="路径 193" class="cls-3" d="M801.2,514.6V459.5l43.9-25.6v55.7Z"/>
          </g>
        </g>
        <g id="组_235" data-name="组 235">
          <g id="组_228" data-name="组 228">
            <g id="组_225" data-name="组 225">
              <path id="路径_194" data-name="路径 194" class="cls-18" d="M715.5,474.8l-1.6-.9,2.8-6,1.5.9Z"/>
            </g>
            <g id="组_226" data-name="组 226">
              <path id="路径_195" data-name="路径 195" class="cls-18" d="M710.9,477.9l-1.5-.9,2.7-6,1.6.9Z"/>
            </g>
            <g id="组_227" data-name="组 227">
              <path id="路径_196" data-name="路径 196" class="cls-19" d="M718.2,468.8l4.3,6.8-5.8,1.2-2.4.4-3.4.7,2.8-6,1.8,2.9Z"/>
            </g>
          </g>
          <g id="组_234" data-name="组 234">
            <g id="组_229" data-name="组 229">
              <path id="路径_197" data-name="路径 197" class="cls-11" d="M724,477.2l-1.6-.9-.2-11.3,1.5.9Z"/>
            </g>
            <g id="组_230" data-name="组 230">
              <path id="路径_198" data-name="路径 198" class="cls-20" d="M709.5,480l-1.5-.9,14.4-2.8,1.6.9Z"/>
            </g>
            <g id="组_231" data-name="组 231">
              <path id="路径_199" data-name="路径 199" class="cls-19" d="M707.7,467.8l17.5-3.4.3,13.7L708,481.5Zm16.3,9.4,0,0-.3-11.3-14.4,2.8.3,11.3"/>
            </g>
            <g id="组_232" data-name="组 232">
              <path id="路径_200" data-name="路径 200" class="cls-11" d="M708,481.5l-1.5-.9-.3-13.7,1.5.9Z"/>
            </g>
            <g id="组_233" data-name="组 233">
              <path id="路径_201" data-name="路径 201" class="cls-18" d="M707.7,467.8l-1.5-.9,17.5-3.4,1.5.9Z"/>
            </g>
          </g>
        </g>
        <g id="组_240" data-name="组 240">
          <g id="组_239" data-name="组 239">
            <g id="组_236" data-name="组 236">
              <path id="路径_202" data-name="路径 202" class="cls-19" d="M685.7,440.4l2.7,3.3-.2,14.8-11,1.8.3-18.5Z"/>
            </g>
            <g id="组_237" data-name="组 237">
              <path id="路径_203" data-name="路径 203" class="cls-11" d="M677.2,460.3l-2.3-.4.3-18.5,2.3.4Z"/>
            </g>
            <g id="组_238" data-name="组 238">
              <path id="路径_204" data-name="路径 204" class="cls-18" d="M677.5,441.8l-2.3-.4,8.2-1.3,2.3.3Z"/>
            </g>
          </g>
          <path id="路径_205" data-name="路径 205" class="cls-21" d="M682.4,449.6a16.68,16.68,0,0,1-.5,1.8,2.563,2.563,0,0,1-.2.5h.1c.8-.2,1.4-.3,1.9-.4-.1-.1-.2-.2-.3-.2a7.521,7.521,0,0,1-1-1.7Zm4.1,2.6a.845.845,0,0,1-.6.2,3.071,3.071,0,0,1-1.5-.4,15.493,15.493,0,0,0-2.8.4h-.1c-.8,1.3-1.3,1.9-1.8,1.9a4.329,4.329,0,0,1-.5-.1l-.2-.2v-.1c0-.1-.1-.2,0-.3a2.645,2.645,0,0,1,1.2-1.3,3.328,3.328,0,0,1,.6-.3,4.608,4.608,0,0,0,.5-1c.3-.6.5-1.4.7-1.9h0a3.043,3.043,0,0,1-.1-2.1c.1-.2.3-.5.5-.5h.1a.6.6,0,0,1,.4.1c.4.4.2,1.5,0,2.3v.1a3.5,3.5,0,0,0,1,1.7c.2.1.3.3.5.4.3,0,.5-.1.8-.1.8,0,1.2.1,1.4.4a.367.367,0,0,1,.1.3c-.1.2-.1.4-.2.5Zm-.4-.5c-.1-.1-.2-.2-1.1-.2a.31.31,0,0,0-.2.1,3.457,3.457,0,0,0,1.2.3h.1v-.2Zm-5.5.9c-.1.1-.2.1-.3.2a4.818,4.818,0,0,0-.8,1,2.585,2.585,0,0,0,1.1-1.2Zm1.8-4.2h0a1.269,1.269,0,0,0,.1-.6v-.1c.1-.4,0-.6-.1-.7h-.1v.1a2.043,2.043,0,0,0,.1,1.3Zm0,0"/>
        </g>
      </g>
      <g id="组_272" data-name="组 272">
        <g id="组_263" data-name="组 263">
          <g id="组_242" data-name="组 242">
            <rect id="矩形_8" data-name="矩形 8" class="cls-22" width="2" height="2" transform="translate(764.905 397.136) rotate(15.945)"/>
            <rect id="矩形_9" data-name="矩形 9" class="cls-23" width="1.4" height="1.4" transform="translate(775.13 387.248) rotate(90)"/>
            <rect id="矩形_10" data-name="矩形 10" class="cls-24" width="1.5" height="1.5" transform="translate(770.972 406.242) rotate(-3.047)"/>
            <rect id="矩形_11" data-name="矩形 11" class="cls-25" width="2.1" height="2.1" transform="translate(772.56 422.46) rotate(-3.047)"/>
            <rect id="矩形_12" data-name="矩形 12" class="cls-26" width="2.9" height="2.9" transform="translate(828.2 417.2)"/>
            <path id="路径_206" data-name="路径 206" class="cls-27" d="M834.7,413.4l-1.6-1.5,1.6-1.6,1.6,1.6Z"/>
            <rect id="矩形_13" data-name="矩形 13" class="cls-28" width="1.7" height="1.7" transform="translate(828.7 406.2)"/>
            <rect id="矩形_14" data-name="矩形 14" class="cls-29" width="1.5" height="1.5" transform="translate(833.108 394.059) rotate(10.369)"/>
            <rect id="矩形_15" data-name="矩形 15" class="cls-30" width="1.5" height="1.5" transform="translate(824.196 385.458) rotate(10.369)"/>
            <rect id="矩形_16" data-name="矩形 16" class="cls-31" width="2.1" height="2.1" transform="matrix(0.669, -0.744, 0.744, 0.669, 774.03, 416.869)"/>
            <rect id="矩形_17" data-name="矩形 17" class="cls-28" width="2.1" height="2.1" transform="matrix(0.765, -0.644, 0.644, 0.765, 767.631, 412.725)"/>
            <rect id="矩形_18" data-name="矩形 18" class="cls-32" width="2.1" height="2.1" transform="translate(793.557 432.962) rotate(-3.047)"/>
          </g>
          <g id="组_262" data-name="组 262">
            <g id="组_258" data-name="组 258">
              <g id="组_253" data-name="组 253">
                <g id="组_243" data-name="组 243">
                  <path id="路径_207" data-name="路径 207" class="cls-33" d="M801.9,449.3l-27.8-16.2,28.1-16.3,27.5,16.1Z"/>
                </g>
                <g id="组_246" data-name="组 246">
                  <g id="组_244" data-name="组 244">
                    <path id="路径_208" data-name="路径 208" class="cls-34" d="M801.9,449.3l-20.7-12.1,20.9-12.1"/>
                  </g>
                  <g id="组_245" data-name="组 245">
                    <path id="路径_209" data-name="路径 209" class="cls-35" d="M801.9,449.3,822.6,437l-20.5-11.9"/>
                  </g>
                </g>
                <g id="组_249" data-name="组 249">
                  <g id="组_247" data-name="组 247">
                    <path id="路径_210" data-name="路径 210" class="cls-36" d="M801.9,449.3l-13.1-7.7,13.2-7.7"/>
                  </g>
                  <g id="组_248" data-name="组 248">
                    <path id="路径_211" data-name="路径 211" class="cls-37" d="M801.9,449.3l13.2-7.8L802,433.9"/>
                  </g>
                </g>
                <g id="组_252" data-name="组 252">
                  <g id="组_250" data-name="组 250">
                    <path id="路径_212" data-name="路径 212" class="cls-38" d="M801.9,449.3l-6.1-3.6,6.2-3.6"/>
                  </g>
                  <g id="组_251" data-name="组 251">
                    <path id="路径_213" data-name="路径 213" class="cls-39" d="M801.9,449.3l6.1-3.6-6-3.6"/>
                  </g>
                </g>
              </g>
              <g id="组_257" data-name="组 257">
                <g id="组_254" data-name="组 254">
                  <path id="路径_214" data-name="路径 214" class="cls-18" d="M825.8,387.5v27.6l-23.7,13.6V401.5Z"/>
                </g>
                <g id="组_255" data-name="组 255">
                  <path id="路径_215" data-name="路径 215" class="cls-40" d="M802.1,428.7l-23.7-13.8V387.7l23.7,13.8Z"/>
                </g>
                <g id="组_256" data-name="组 256">
                  <path id="路径_216" data-name="路径 216" class="cls-41" d="M802.1,401.5l-23.7-13.8,23.9-14,23.5,13.8Z"/>
                </g>
              </g>
            </g>
            <g id="组_261" data-name="组 261">
              <g id="组_259" data-name="组 259">
                <path id="路径_217" data-name="路径 217" class="cls-42" d="M829.8,357.5v75.9l-27.8,16V373.9Z"/>
              </g>
              <g id="组_260" data-name="组 260">
                <path id="路径_218" data-name="路径 218" class="cls-43" d="M802,449.4l-27.7-16.2V357.7L802,373.9Z"/>
              </g>
            </g>
          </g>
        </g>
        <g id="组_271" data-name="组 271">
          <g id="组_264" data-name="组 264">
            <path id="路径_219" data-name="路径 219" class="cls-44" d="M807.6,388.5l-2.2-.8-3.3-5.5,2.2.7Z"/>
          </g>
          <g id="组_265" data-name="组 265">
            <path id="路径_220" data-name="路径 220" class="cls-45" d="M807.7,371.4l-2.2-.7,3.2-.7,2.2.8Z"/>
          </g>
          <g id="组_266" data-name="组 266">
            <path id="路径_221" data-name="路径 221" class="cls-45" d="M804.4,378l-2.2-.7,3.3-6.6,2.2.7Z"/>
          </g>
          <g id="组_267" data-name="组 267">
            <path id="路径_222" data-name="路径 222" class="cls-45" d="M797.6,390.6l-2.2-.7,5.1-9.9,2.3.7Z"/>
          </g>
          <g id="组_268" data-name="组 268">
            <path id="路径_223" data-name="路径 223" class="cls-44" d="M802.8,380.7l-2.3-.7-4.6-7.3,2.3.7Z"/>
          </g>
          <g id="组_269" data-name="组 269">
            <path id="路径_224" data-name="路径 224" class="cls-46" d="M806,380l4.9,7.8-3.3.7-3.3-5.6-3.5,7-3.2.7,5.2-9.9-4.6-7.3,3.2-.7,3,5.3,3.3-6.6,3.2-.6Z"/>
          </g>
          <g id="组_270" data-name="组 270">
            <path id="路径_225" data-name="路径 225" class="cls-45" d="M798.2,373.4l-2.3-.7,3.3-.7,2.2.7Z"/>
          </g>
        </g>
      </g>
    </g>
  </g>
</svg>
